<svg 
 xmlns="http://www.w3.org/2000/svg"
 xmlns:xlink="http://www.w3.org/1999/xlink"
 width="16px" height="16px">
<path fill-rule="evenodd"  fill="rgb(244, 2, 250)"
 d="M0.000,16.000 L0.000,12.000 L1.000,12.000 L1.000,4.000 L3.000,4.000 L3.000,5.000 L3.000,12.000 L13.000,12.000 L13.000,5.000 L13.000,4.000 L15.000,4.000 L15.000,12.000 L16.000,12.000 L16.000,16.000 L0.000,16.000 ZM12.879,6.069 L12.482,8.588 C12.202,9.991 11.430,11.000 10.000,11.000 L6.000,11.000 C4.570,11.000 3.798,9.991 3.518,8.588 L3.297,6.631 C3.117,6.117 3.000,5.575 3.000,5.000 C3.000,2.239 5.239,0.000 8.000,0.000 C10.761,0.000 13.000,2.239 13.000,5.000 C13.000,5.668 12.864,6.303 12.626,6.885 C12.733,6.623 12.818,6.351 12.879,6.069 ZM8.000,2.000 C6.346,2.000 5.000,3.346 5.000,5.000 C5.000,6.654 6.346,8.000 8.000,8.000 C9.654,8.000 11.000,6.654 11.000,5.000 C11.000,3.346 9.654,2.000 8.000,2.000 Z"/>
</svg>