<svg 
 xmlns="http://www.w3.org/2000/svg"
 xmlns:xlink="http://www.w3.org/1999/xlink"
 width="18px" height="14px">
<path fill-rule="evenodd"  fill="rgb(2, 224, 250)"
 d="M17.906,2.985 C18.000,3.454 18.000,3.880 17.907,4.266 C17.814,4.652 17.633,4.993 17.365,5.291 C17.097,5.589 16.704,5.857 16.185,6.096 C15.556,6.385 15.001,6.534 14.519,6.543 C14.038,6.552 13.548,6.403 13.050,6.097 C12.552,5.791 12.141,5.295 11.817,4.609 C11.384,3.695 11.306,2.875 11.583,2.150 C11.860,1.424 12.464,0.847 13.397,0.418 C14.126,0.083 14.766,-0.040 15.316,0.049 C15.867,0.139 16.382,0.429 16.861,0.918 L15.440,1.981 C15.305,1.838 15.188,1.741 15.091,1.691 C14.929,1.607 14.759,1.562 14.581,1.558 C14.403,1.555 14.224,1.594 14.045,1.676 C13.639,1.863 13.403,2.161 13.334,2.572 C13.280,2.878 13.370,3.278 13.604,3.773 C13.894,4.385 14.191,4.761 14.493,4.898 C14.795,5.036 15.123,5.023 15.476,4.861 C15.818,4.704 16.033,4.493 16.122,4.229 C16.210,3.965 16.211,3.640 16.124,3.254 L17.906,2.985 ZM11.921,6.699 C12.057,6.986 12.109,7.276 12.078,7.568 C12.046,7.861 11.941,8.130 11.762,8.375 C11.651,8.527 11.453,8.691 11.168,8.868 C10.790,9.104 10.534,9.252 10.402,9.313 L7.314,10.733 L4.698,5.206 L8.047,3.666 C8.605,3.409 9.096,3.344 9.520,3.470 C9.943,3.597 10.247,3.855 10.432,4.244 C10.587,4.571 10.613,4.900 10.510,5.232 C10.442,5.453 10.292,5.672 10.061,5.888 C10.522,5.793 10.906,5.816 11.212,5.958 C11.518,6.100 11.755,6.348 11.921,6.699 ZM8.800,5.307 C8.724,5.146 8.609,5.046 8.457,5.006 C8.305,4.965 8.094,5.008 7.822,5.132 L7.033,5.496 L7.529,6.544 L8.307,6.186 C8.586,6.058 8.758,5.922 8.824,5.780 C8.890,5.638 8.882,5.480 8.800,5.307 ZM10.037,7.332 C9.960,7.169 9.835,7.066 9.663,7.024 C9.491,6.982 9.248,7.034 8.935,7.178 L8.027,7.596 L8.557,8.715 L9.469,8.296 C9.777,8.154 9.970,8.002 10.047,7.839 C10.124,7.677 10.121,7.508 10.037,7.332 ZM4.868,11.858 L4.146,11.079 L2.115,12.014 L2.265,13.056 L0.438,13.896 L-0.002,7.368 L1.949,6.470 L6.741,10.997 L4.868,11.858 ZM1.630,8.362 L1.938,10.640 L3.209,10.055 L1.630,8.362 Z"/>
</svg>