<svg 
 xmlns="http://www.w3.org/2000/svg"
 xmlns:xlink="http://www.w3.org/1999/xlink"
 width="16px" height="16px">
<path fill-rule="evenodd"  fill="rgb(2, 224, 250)"
 d="M8.000,0.000 C3.582,0.000 0.000,3.582 0.000,8.000 C0.000,12.418 3.582,16.000 8.000,16.000 C12.418,16.000 16.000,12.418 16.000,8.000 C16.000,3.582 12.418,0.000 8.000,0.000 ZM8.000,15.000 C4.140,15.000 1.000,11.860 1.000,8.000 C1.000,4.140 4.140,1.000 8.000,1.000 C11.860,1.000 15.000,4.140 15.000,8.000 C15.000,11.860 11.860,15.000 8.000,15.000 ZM8.000,3.000 C5.239,3.000 3.000,5.239 3.000,8.000 C3.000,10.761 5.239,13.000 8.000,13.000 C10.761,13.000 13.000,10.761 13.000,8.000 C13.000,5.239 10.761,3.000 8.000,3.000 Z"/>
</svg>