<svg 
 xmlns="http://www.w3.org/2000/svg"
 xmlns:xlink="http://www.w3.org/1999/xlink"
 width="24px" height="16px">
<path fill-rule="evenodd"  fill="rgb(244, 2, 250)"
 d="M22.000,6.000 L22.000,16.000 L20.000,16.000 L20.000,6.000 L18.000,6.000 L18.000,4.000 L20.000,4.000 L20.000,0.000 L22.000,0.000 L22.000,4.000 L24.000,4.000 L24.000,6.000 L22.000,6.000 ZM18.000,13.000 L16.000,13.000 L16.000,16.000 L14.000,16.000 L14.000,13.000 L12.000,13.000 L12.000,11.000 L14.000,11.000 L14.000,0.000 L16.000,0.000 L16.000,11.000 L18.000,11.000 L18.000,13.000 ZM10.000,16.000 L8.000,16.000 L8.000,6.000 L6.000,6.000 L6.000,4.000 L8.000,4.000 L8.000,0.000 L10.000,0.000 L10.000,4.000 L12.000,4.000 L12.000,6.000 L10.000,6.000 L10.000,16.000 ZM4.000,16.000 L2.000,16.000 L2.000,13.000 L-0.000,13.000 L-0.000,11.000 L2.000,11.000 L2.000,0.000 L4.000,0.000 L4.000,11.000 L6.000,11.000 L6.000,13.000 L4.000,13.000 L4.000,16.000 Z"/>
</svg>