<svg 
 xmlns="http://www.w3.org/2000/svg"
 xmlns:xlink="http://www.w3.org/1999/xlink"
 width="19px" height="15px">
<path fill-rule="evenodd"  fill="rgb(2, 224, 250)"
 d="M-0.000,3.000 L4.000,3.000 L4.000,-0.000 L-0.000,-0.000 L-0.000,3.000 ZM5.000,3.000 L9.000,3.000 L9.000,-0.000 L5.000,-0.000 L5.000,3.000 ZM6.000,1.000 L8.000,1.000 L8.000,2.000 L6.000,2.000 L6.000,1.000 ZM10.000,3.000 L14.000,3.000 L14.000,-0.000 L10.000,-0.000 L10.000,3.000 ZM15.000,-0.000 L15.000,3.000 L19.000,3.000 L19.000,-0.000 L15.000,-0.000 ZM18.000,2.000 L16.000,2.000 L16.000,1.000 L18.000,1.000 L18.000,2.000 ZM-0.000,7.000 L4.000,7.000 L4.000,4.000 L-0.000,4.000 L-0.000,7.000 ZM5.000,7.000 L9.000,7.000 L9.000,4.000 L5.000,4.000 L5.000,7.000 ZM10.000,7.000 L14.000,7.000 L14.000,4.000 L10.000,4.000 L10.000,7.000 ZM11.000,5.000 L13.000,5.000 L13.000,6.000 L11.000,6.000 L11.000,5.000 ZM15.000,7.000 L19.000,7.000 L19.000,4.000 L15.000,4.000 L15.000,7.000 ZM-0.000,11.000 L4.000,11.000 L4.000,8.000 L-0.000,8.000 L-0.000,11.000 ZM1.000,9.000 L3.000,9.000 L3.000,10.000 L1.000,10.000 L1.000,9.000 ZM5.000,11.000 L9.000,11.000 L9.000,8.000 L5.000,8.000 L5.000,11.000 ZM10.000,11.000 L14.000,11.000 L14.000,8.000 L10.000,8.000 L10.000,11.000 ZM15.000,11.000 L19.000,11.000 L19.000,8.000 L15.000,8.000 L15.000,11.000 ZM-0.000,15.000 L4.000,15.000 L4.000,12.000 L-0.000,12.000 L-0.000,15.000 ZM5.000,15.000 L9.000,15.000 L9.000,12.000 L5.000,12.000 L5.000,15.000 ZM10.000,15.000 L14.000,15.000 L14.000,12.000 L10.000,12.000 L10.000,15.000 ZM11.000,13.000 L13.000,13.000 L13.000,14.000 L11.000,14.000 L11.000,13.000 ZM15.000,15.000 L19.000,15.000 L19.000,12.000 L15.000,12.000 L15.000,15.000 Z"/>
</svg>