<svg 
 xmlns="http://www.w3.org/2000/svg"
 xmlns:xlink="http://www.w3.org/1999/xlink"
 width="16px" height="16px">
<path fill-rule="evenodd"  fill="rgb(2, 224, 250)"
 d="M-0.000,0.000 L-0.000,16.000 L16.000,16.000 L16.000,0.000 L-0.000,0.000 ZM14.000,12.000 L12.000,12.000 L10.500,10.000 L9.000,12.000 L7.000,12.000 L9.500,8.000 L8.000,6.000 L5.000,6.000 L5.000,7.000 L7.000,7.000 L7.000,9.000 L5.000,9.000 L5.000,12.000 L3.000,12.000 L3.000,4.000 L5.000,4.000 L7.000,4.000 L8.000,4.000 L9.000,4.000 L10.500,6.000 L12.000,4.000 L14.000,4.000 L11.500,8.000 L14.000,12.000 Z"/>
</svg>