<svg 
 xmlns="http://www.w3.org/2000/svg"
 xmlns:xlink="http://www.w3.org/1999/xlink"
 width="16px" height="16px">
<path fill-rule="evenodd"  fill="rgb(2, 224, 250)"
 d="M12.000,16.000 L12.000,14.000 L4.000,14.000 L4.000,16.000 L-0.000,16.000 L-0.000,0.000 L4.000,0.000 L4.000,2.000 L12.000,2.000 L12.000,0.000 L16.000,0.000 L16.000,16.000 L12.000,16.000 ZM3.000,1.000 L1.000,1.000 L1.000,3.000 L3.000,3.000 L3.000,1.000 ZM3.000,5.000 L1.000,5.000 L1.000,7.000 L3.000,7.000 L3.000,5.000 ZM3.000,9.000 L1.000,9.000 L1.000,11.000 L3.000,11.000 L3.000,9.000 ZM1.000,13.000 L1.000,15.000 L3.000,15.000 L3.000,13.000 L1.000,13.000 ZM4.000,3.000 L4.000,13.000 L12.000,13.000 L12.000,3.000 L4.000,3.000 ZM15.000,1.000 L13.000,1.000 L13.000,3.000 L15.000,3.000 L15.000,1.000 ZM15.000,5.000 L13.000,5.000 L13.000,7.000 L15.000,7.000 L15.000,5.000 ZM15.000,9.000 L13.000,9.000 L13.000,11.000 L15.000,11.000 L15.000,9.000 ZM15.000,13.000 L13.000,13.000 L13.000,15.000 L15.000,15.000 L15.000,13.000 Z"/>
</svg>