<svg 
 xmlns="http://www.w3.org/2000/svg"
 xmlns:xlink="http://www.w3.org/1999/xlink"
 width="17px" height="10px">
<path fill-rule="evenodd"  fill="rgb(244, 2, 250)"
 d="M12.795,3.114 C13.700,3.568 14.174,4.578 13.924,5.522 C13.677,6.459 12.763,7.134 11.747,7.134 C11.481,7.134 11.227,7.088 10.991,7.008 C11.493,5.722 11.493,4.280 10.991,2.994 C11.580,2.793 12.241,2.835 12.795,3.114 ZM16.158,7.732 C15.508,8.677 14.525,9.399 13.397,9.752 C12.030,10.180 10.502,10.052 9.237,9.399 C9.237,9.399 9.237,9.399 9.237,9.399 C9.329,9.325 9.417,9.247 9.503,9.168 C9.520,9.153 9.536,9.139 9.552,9.124 C9.630,9.051 9.706,8.975 9.780,8.898 C9.803,8.874 9.826,8.849 9.848,8.825 C9.916,8.751 9.983,8.677 10.048,8.600 C10.072,8.570 10.095,8.540 10.119,8.510 C10.181,8.433 10.243,8.355 10.301,8.274 C10.301,8.274 10.301,8.274 10.301,8.274 C11.367,8.700 12.610,8.626 13.610,8.077 C15.227,7.189 15.920,5.238 15.181,3.604 C14.393,1.860 12.223,0.997 10.363,1.705 C10.090,1.809 9.833,1.942 9.597,2.101 L9.497,2.172 C8.823,2.657 8.337,3.352 8.129,4.127 L8.090,4.272 C8.088,4.283 8.086,4.293 8.084,4.303 C7.988,4.758 7.987,5.230 8.081,5.685 L8.081,5.685 C8.081,5.685 8.081,5.685 8.081,5.686 C8.062,5.757 8.039,5.827 8.014,5.895 C7.989,5.965 7.961,6.034 7.930,6.102 C7.924,6.115 7.918,6.128 7.912,6.141 C7.881,6.206 7.848,6.270 7.811,6.333 C7.810,6.336 7.808,6.338 7.806,6.341 C7.772,6.399 7.735,6.456 7.697,6.512 C7.687,6.526 7.677,6.540 7.667,6.554 C7.632,6.603 7.595,6.652 7.556,6.699 C7.549,6.707 7.542,6.716 7.535,6.725 C7.489,6.779 7.440,6.832 7.390,6.883 C7.380,6.894 7.369,6.903 7.359,6.913 C7.318,6.954 7.275,6.994 7.230,7.032 C7.216,7.045 7.202,7.057 7.188,7.069 C7.134,7.114 7.079,7.158 7.021,7.199 C7.020,7.200 7.019,7.201 7.019,7.201 C6.918,7.007 6.832,6.804 6.758,6.596 C6.393,5.566 6.393,4.435 6.757,3.405 C6.898,3.008 7.090,2.633 7.326,2.287 L7.405,2.177 C7.422,2.153 7.441,2.131 7.459,2.107 C7.701,1.784 7.982,1.490 8.296,1.230 C8.306,1.222 8.315,1.213 8.325,1.205 L8.462,1.094 C9.362,0.409 10.504,-0.001 11.747,-0.001 C13.111,-0.001 14.440,0.512 15.417,1.415 C17.198,3.061 17.517,5.754 16.158,7.732 ZM4.222,6.888 C3.317,6.433 2.843,5.423 3.093,4.480 C3.340,3.542 4.254,2.867 5.270,2.867 C5.536,2.867 5.790,2.914 6.026,2.994 C5.525,4.280 5.525,5.722 6.026,7.008 C5.437,7.208 4.776,7.166 4.222,6.888 ZM6.941,1.440 C6.864,1.534 6.789,1.630 6.718,1.728 C5.652,1.301 4.408,1.376 3.407,1.925 C1.791,2.812 1.097,4.763 1.836,6.397 C2.625,8.142 4.795,9.005 6.655,8.297 C6.676,8.289 6.697,8.282 6.718,8.273 C6.957,8.177 7.184,8.057 7.395,7.918 C7.417,7.903 7.437,7.887 7.458,7.872 C7.506,7.839 7.554,7.806 7.600,7.771 C7.613,7.762 7.625,7.752 7.638,7.742 C7.663,7.723 7.688,7.704 7.712,7.684 C7.749,7.654 7.785,7.623 7.820,7.591 C7.849,7.566 7.876,7.540 7.904,7.514 C7.907,7.511 7.911,7.507 7.914,7.504 C7.947,7.473 7.980,7.442 8.012,7.410 C8.039,7.381 8.065,7.352 8.091,7.323 C8.117,7.294 8.145,7.265 8.170,7.236 C8.178,7.226 8.186,7.216 8.194,7.206 C8.210,7.186 8.226,7.166 8.242,7.147 C8.276,7.104 8.309,7.061 8.341,7.017 C8.342,7.016 8.343,7.015 8.343,7.015 C8.363,6.987 8.383,6.960 8.402,6.932 C8.446,6.868 8.488,6.803 8.527,6.736 C8.532,6.727 8.539,6.719 8.544,6.709 C8.589,6.632 8.629,6.553 8.668,6.473 C8.674,6.460 8.679,6.448 8.685,6.435 C8.690,6.425 8.695,6.415 8.699,6.404 C8.714,6.372 8.726,6.339 8.740,6.307 C8.754,6.274 8.768,6.242 8.781,6.210 C8.789,6.189 8.797,6.168 8.805,6.147 C8.829,6.080 8.849,6.011 8.870,5.943 C8.875,5.923 8.883,5.904 8.888,5.885 C8.905,5.822 8.920,5.760 8.933,5.696 C8.934,5.690 8.936,5.685 8.937,5.679 C9.029,5.232 9.029,4.770 8.937,4.322 L8.937,4.322 C9.102,3.708 9.483,3.176 10.000,2.804 C10.000,2.804 10.000,2.804 10.000,2.804 C10.100,2.998 10.186,3.199 10.259,3.406 C10.698,4.643 10.605,6.025 10.000,7.198 C9.885,7.421 9.753,7.634 9.605,7.837 C9.591,7.856 9.577,7.874 9.562,7.893 C9.542,7.918 9.523,7.944 9.503,7.969 C9.462,8.022 9.421,8.075 9.378,8.126 C9.351,8.158 9.322,8.190 9.294,8.221 C9.283,8.233 9.272,8.246 9.261,8.258 C9.221,8.303 9.179,8.348 9.137,8.391 C9.114,8.415 9.090,8.438 9.066,8.461 C9.043,8.484 9.020,8.508 8.996,8.531 C8.960,8.565 8.923,8.599 8.886,8.632 C8.829,8.683 8.772,8.733 8.713,8.782 C8.578,8.893 8.436,8.999 8.288,9.097 C8.281,9.103 8.274,9.108 8.266,9.113 C8.251,9.123 8.236,9.132 8.221,9.142 C8.079,9.234 7.933,9.320 7.782,9.398 C7.595,9.495 7.401,9.581 7.203,9.655 C5.796,10.183 4.178,10.103 2.838,9.438 C1.665,8.857 0.747,7.854 0.306,6.669 C-0.149,5.446 -0.081,4.070 0.495,2.894 C1.050,1.760 2.055,0.847 3.272,0.372 C4.721,-0.194 6.405,-0.108 7.782,0.604 C7.485,0.846 7.212,1.116 6.968,1.407 C6.959,1.418 6.950,1.429 6.941,1.440 Z"/>
</svg>