<svg 
 xmlns="http://www.w3.org/2000/svg"
 xmlns:xlink="http://www.w3.org/1999/xlink"
 width="22px" height="22px">
<path fill-rule="evenodd"  fill="rgb(2, 252, 29)"
 d="M11.000,0.000 C17.075,0.000 22.000,4.925 22.000,11.000 C22.000,17.075 17.075,22.000 11.000,22.000 C4.925,22.000 0.000,17.075 0.000,11.000 C0.000,4.925 4.925,0.000 11.000,0.000 ZM11.000,1.000 C16.523,1.000 21.000,5.477 21.000,11.000 C21.000,16.523 16.523,21.000 11.000,21.000 C5.477,21.000 1.000,16.523 1.000,11.000 C1.000,5.477 5.477,1.000 11.000,1.000 Z"/>
<path fill-rule="evenodd"  fill="rgb(2, 252, 29)"
 d="M18.989,11.000 L12.559,5.010 L12.559,7.230 L12.559,7.864 L11.898,7.864 C10.987,7.864 10.163,8.230 9.574,8.817 C9.007,9.383 8.658,10.152 8.658,11.000 C8.658,11.751 8.026,12.362 7.250,12.362 C7.014,12.362 6.791,12.305 6.596,12.205 C6.149,11.976 5.843,11.522 5.843,11.000 C5.843,10.249 6.474,9.638 7.250,9.638 C7.595,9.638 7.910,9.759 8.155,9.958 C8.330,9.370 8.649,8.841 9.073,8.409 C8.553,8.065 7.926,7.864 7.250,7.864 C5.461,7.864 4.010,9.268 4.010,11.000 C4.010,12.515 5.120,13.779 6.596,14.072 C6.807,14.114 7.026,14.136 7.250,14.136 C8.161,14.136 8.985,13.770 9.574,13.182 C10.140,12.617 10.490,11.847 10.490,11.000 C10.490,10.249 11.122,9.638 11.898,9.638 L12.559,9.638 L12.559,9.639 L12.559,9.639 C12.815,9.639 13.055,9.706 13.262,9.822 C13.682,10.057 13.966,10.496 13.966,11.001 C13.966,11.750 13.339,12.358 12.565,12.362 L11.898,12.362 C11.553,12.362 11.237,12.241 10.992,12.041 C10.817,12.629 10.499,13.158 10.075,13.591 C10.594,13.934 11.222,14.136 11.898,14.136 L12.559,14.136 L12.559,16.989 L18.989,11.000 Z"/>
</svg>