<svg 
 xmlns="http://www.w3.org/2000/svg"
 xmlns:xlink="http://www.w3.org/1999/xlink"
 width="19px" height="16px">
<path fill-rule="evenodd"  fill="rgb(149, 149, 149)"
 d="M13.000,15.000 L9.000,11.000 L15.000,5.000 L19.000,9.000 L13.000,15.000 ZM12.000,3.000 L14.000,3.000 L14.000,4.029 L12.000,5.979 L12.000,3.000 ZM8.000,1.000 L10.000,1.000 L10.000,8.000 L8.000,10.000 L8.000,1.000 ZM4.000,4.000 L6.000,4.000 L6.000,12.000 L4.000,12.000 L4.000,4.000 ZM-0.000,0.000 L2.000,0.000 L2.000,16.000 L-0.000,16.000 L-0.000,0.000 ZM12.000,16.000 L8.000,16.000 L8.000,12.000 L12.000,16.000 Z"/>
</svg>