<svg 
 xmlns="http://www.w3.org/2000/svg"
 xmlns:xlink="http://www.w3.org/1999/xlink"
 width="24px" height="16px">
<path fill-rule="evenodd"  fill="rgb(151, 151, 151)"
 d="M17.395,1.000 L12.336,1.000 L15.000,4.000 L18.000,4.000 C19.054,4.000 21.000,5.886 21.000,7.000 L21.000,9.000 C21.000,10.114 19.054,12.000 18.000,12.000 L11.000,12.000 C9.946,12.000 8.000,10.114 8.000,9.000 L8.000,7.000 L12.000,7.000 L6.047,0.226 L-0.000,7.000 L4.000,7.000 L4.000,9.000 C4.000,12.840 7.782,15.019 11.414,15.019 L17.395,15.019 C21.027,15.019 23.999,12.878 23.999,9.038 L23.999,6.980 C23.999,3.141 21.027,1.000 17.395,1.000 Z"/>
</svg>