<svg 
 xmlns="http://www.w3.org/2000/svg"
 xmlns:xlink="http://www.w3.org/1999/xlink"
 width="18px" height="14px">
<path fill-rule="evenodd"  fill="rgb(0, 226, 253)"
 d="M10.485,11.000 C9.665,11.000 9.000,10.371 9.000,9.595 C9.000,8.819 9.665,8.190 10.485,8.190 C10.670,8.190 10.843,8.227 11.004,8.289 C11.162,8.346 11.300,8.432 11.427,8.533 L11.427,3.000 C11.764,3.294 12.010,3.514 12.165,3.661 C12.450,3.930 12.968,4.310 13.719,4.800 C14.573,5.363 15.000,5.901 15.000,6.415 C15.000,6.905 14.754,7.382 14.262,7.847 C13.926,8.166 13.524,8.447 13.058,8.692 L12.942,8.545 C13.304,8.300 13.602,8.031 13.835,7.737 C14.042,7.468 14.146,7.199 14.146,6.929 C14.146,6.660 14.042,6.428 13.835,6.232 C13.576,5.987 13.266,5.742 12.903,5.497 C12.541,5.253 12.230,4.983 11.971,4.690 L11.971,9.595 C11.971,10.371 11.306,11.000 10.485,11.000 ZM7.000,14.000 L7.000,11.000 L8.000,9.000 L8.000,13.000 L17.000,13.000 L17.000,4.000 L14.000,4.000 L14.000,1.000 L8.000,1.000 L8.000,4.000 L7.000,2.000 L7.000,0.000 L14.980,0.000 L17.999,3.015 L17.999,14.000 L7.000,14.000 ZM8.000,6.500 L4.000,10.000 L4.000,7.000 L0.000,7.000 L0.000,6.000 L4.000,6.000 L4.000,3.000 L8.000,6.500 Z"/>
</svg>