<?xml version="1.0" encoding="utf-8"?>
<!-- Generator: Adobe Illustrator 21.1.0, SVG Export Plug-In . SVG Version: 6.00 Build 0)  -->
<svg version="1.1" id="Layer_1" xmlns="http://www.w3.org/2000/svg" xmlns:xlink="http://www.w3.org/1999/xlink" x="0px" y="0px"
	 viewBox="0 0 12 16" style="enable-background:new 0 0 12 16;" xml:space="preserve">
<style type="text/css">
	.st0{fill:#00F817;}
</style>
<path class="st0" d="M8.4,13.4l0.1,1.1c0,0.7-0.4,0.9-1,0.6l-3.2-1.8C3.7,13,3.7,12.4,4.2,12l2.9-2.2c0.5-0.4,1-0.2,1,0.5l0.1,1.3
	c1.1-0.6,1.9-1.8,1.9-3.2c0-0.8-0.2-1.5-0.7-2.1C9.2,5.9,9.3,5.4,9.7,5.1c0.4-0.3,0.9-0.2,1.1,0.2c0.6,0.9,1,2,1,3.1
	C11.8,10.7,10.4,12.6,8.4,13.4z M7.9,4L5,6.2C4.5,6.6,4,6.3,4,5.7L3.9,4.8C2.7,5.4,1.9,6.6,1.9,8c0,0.8,0.2,1.5,0.6,2.2
	c0.2,0.4,0.1,0.9-0.2,1.1c-0.1,0.1-0.3,0.1-0.5,0.1c-0.3,0-0.5-0.1-0.6-0.4c-0.6-0.9-0.9-2-0.8-3.1c0.1-2.3,1.6-4.1,3.6-4.8L3.7,1.6
	c0-0.7,0.4-0.9,1-0.6l3.2,1.8C8.4,3,8.5,3.6,7.9,4z"/>
</svg>
