<svg 
 xmlns="http://www.w3.org/2000/svg"
 xmlns:xlink="http://www.w3.org/1999/xlink"
 width="12px" height="13px">
<path fill-rule="evenodd"  fill="rgb(150, 150, 150)"
 d="M10.914,9.778 C9.674,12.365 6.412,13.513 3.628,12.342 C1.903,11.617 0.749,10.106 0.446,8.561 C0.424,8.379 0.438,7.508 1.279,7.393 C1.980,7.298 2.370,7.716 2.376,7.978 C2.476,9.014 3.253,10.143 4.442,10.643 C6.216,11.389 8.295,10.657 9.084,9.009 C9.874,7.361 9.076,5.420 7.302,4.674 C6.805,4.465 6.287,4.407 5.777,4.418 L5.838,5.660 C5.870,6.314 5.421,6.609 4.840,6.316 L1.583,4.671 C1.002,4.378 0.974,3.803 1.520,3.394 L4.583,1.101 C5.129,0.692 5.603,0.893 5.635,1.547 L5.683,2.523 C6.495,2.501 7.325,2.642 8.117,2.975 C10.901,4.145 12.153,7.191 10.914,9.778 Z"/>
</svg>