<svg 
 xmlns="http://www.w3.org/2000/svg"
 xmlns:xlink="http://www.w3.org/1999/xlink"
 width="25px" height="14px">
<path fill-rule="evenodd"  fill="rgb(150, 150, 150)"
 d="M20.992,9.367 L17.577,3.984 L24.407,3.984 L20.992,9.367 ZM11.252,13.167 L7.760,9.675 C5.814,10.975 3.159,10.769 1.440,9.051 C-0.515,7.095 -0.515,3.924 1.440,1.968 C3.396,0.012 6.568,0.012 8.523,1.968 C10.245,3.689 10.448,6.350 9.139,8.297 L12.630,11.789 L11.252,13.167 ZM7.711,2.972 C6.292,1.553 3.991,1.553 2.572,2.972 C1.153,4.392 1.153,6.692 2.572,8.111 C3.991,9.530 6.292,9.530 7.711,8.111 C9.130,6.692 9.130,4.392 7.711,2.972 Z"/>
</svg>