<svg 
 xmlns="http://www.w3.org/2000/svg"
 xmlns:xlink="http://www.w3.org/1999/xlink"
 width="10px" height="13px">
<path fill-rule="evenodd"  fill="rgb(150, 150, 150)"
 d="M0.412,3.044 L3.529,1.156 C4.085,0.819 4.546,1.047 4.555,1.662 L4.571,2.879 C7.568,2.896 10.000,5.159 10.000,7.939 C10.000,10.730 7.550,13.000 4.538,13.000 C4.027,13.000 3.613,12.617 3.613,12.144 C3.613,11.671 4.027,11.287 4.538,11.287 C6.530,11.287 8.151,9.785 8.151,7.939 C8.151,6.110 6.560,4.620 4.594,4.592 L4.606,5.532 C4.614,6.147 4.159,6.385 3.594,6.061 L0.429,4.245 C-0.136,3.921 -0.144,3.381 0.412,3.044 Z"/>
</svg>