<svg 
 xmlns="http://www.w3.org/2000/svg"
 xmlns:xlink="http://www.w3.org/1999/xlink"
 width="16px" height="13px">
<path fill-rule="evenodd"  fill="rgb(252, 252, 252)"
 d="M4.000,13.000 L4.000,10.000 L16.000,10.000 L16.000,13.000 L4.000,13.000 ZM4.000,5.000 L16.000,5.000 L16.000,8.000 L4.000,8.000 L4.000,5.000 ZM4.000,-0.000 L16.000,-0.000 L16.000,3.000 L4.000,3.000 L4.000,-0.000 ZM-0.000,10.000 L3.000,10.000 L3.000,13.000 L-0.000,13.000 L-0.000,10.000 ZM-0.000,5.000 L3.000,5.000 L3.000,8.000 L-0.000,8.000 L-0.000,5.000 ZM-0.000,-0.000 L3.000,-0.000 L3.000,3.000 L-0.000,3.000 L-0.000,-0.000 Z"/>
</svg>