<svg 
 xmlns="http://www.w3.org/2000/svg"
 xmlns:xlink="http://www.w3.org/1999/xlink"
 width="24px" height="18px">
<path fill-rule="evenodd"  fill="rgb(2, 252, 46)"
 d="M22.950,13.010 C22.782,12.203 22.150,11.930 21.351,11.930 C19.991,11.930 19.280,12.745 19.280,13.936 C19.280,15.240 20.059,15.988 21.426,15.988 C22.418,15.988 22.840,15.928 22.904,14.985 L23.833,15.018 C23.681,16.450 22.877,17.001 21.430,17.001 C19.663,17.001 18.385,15.622 18.385,13.958 C18.385,12.295 19.600,10.952 21.359,10.952 C22.550,10.952 23.745,11.795 23.913,13.010 L22.950,13.010 ZM20.959,7.000 L19.926,6.990 L20.021,1.972 L17.997,1.987 L18.027,0.975 L22.967,0.969 L23.018,1.991 L20.982,1.944 L20.959,7.000 ZM16.962,6.963 L16.325,5.004 L14.554,4.998 L13.940,7.021 L12.840,7.000 L15.046,0.955 L15.977,0.961 L18.141,7.000 L16.962,6.963 ZM15.487,1.979 L15.471,1.979 L14.867,4.040 L16.094,4.032 L15.487,1.979 ZM16.391,14.983 L16.376,14.952 L16.315,10.979 L17.322,11.027 L17.361,16.941 L16.316,16.990 L13.332,13.010 L13.330,12.905 L13.381,17.000 L12.315,17.033 L12.274,10.938 L13.332,11.000 L16.391,14.983 ZM8.977,1.984 L9.039,3.545 L12.011,3.531 L12.007,4.508 L8.986,4.462 L9.020,5.960 L12.007,5.976 L11.997,6.951 L7.971,7.000 L8.018,0.969 L12.040,0.973 L12.008,1.968 L8.977,1.984 ZM7.245,5.361 C7.245,6.192 6.638,7.000 5.510,7.000 L1.951,7.053 L1.951,0.988 L4.766,0.988 C5.262,0.988 5.957,1.096 6.293,1.304 C6.669,1.528 7.005,2.123 7.005,2.690 C7.005,3.298 6.694,3.754 6.158,3.970 L6.158,3.986 C6.862,4.138 7.245,4.657 7.245,5.361 ZM2.998,5.970 L4.975,5.981 C5.639,5.981 6.037,5.939 6.037,5.308 C6.037,4.564 5.361,4.512 4.721,4.512 L2.984,4.548 L2.998,5.970 ZM4.613,2.013 L2.968,1.968 L3.043,3.523 L5.027,3.515 C5.890,3.515 6.041,3.274 6.041,2.666 C6.041,1.867 5.276,2.013 4.613,2.013 ZM5.298,12.972 L4.369,12.964 C4.281,12.141 3.831,11.902 3.040,11.902 C2.392,11.902 1.884,12.161 1.884,12.905 C1.884,14.312 5.319,13.200 5.319,15.447 C5.319,16.662 3.919,16.993 2.879,16.993 C1.600,16.993 0.380,16.409 0.380,15.025 L1.363,15.045 C1.363,16.004 2.055,16.008 2.919,16.008 C3.606,16.008 4.278,16.179 4.278,15.355 C4.278,13.788 0.931,14.956 0.931,12.861 C0.931,11.710 2.005,11.003 3.052,11.003 C4.220,11.003 5.258,11.717 5.298,12.972 ZM6.845,10.998 L8.282,14.033 L9.955,10.988 L11.362,10.961 L8.917,15.542 L8.935,17.000 L7.759,16.990 L7.788,15.540 L5.328,11.006 L6.845,10.998 Z"/>
</svg>