<?xml version="1.0" encoding="utf-8"?>
<!-- Generator: Adobe Illustrator 21.1.0, SVG Export Plug-In . SVG Version: 6.00 Build 0)  -->
<svg version="1.1" id="Layer_1" xmlns="http://www.w3.org/2000/svg" xmlns:xlink="http://www.w3.org/1999/xlink" x="0px" y="0px"
	 viewBox="0 0 19 15" style="enable-background:new 0 0 19 15;" xml:space="preserve">
<style type="text/css">
	.st0{fill:#00E815;}
</style>
<path class="st0" d="M7,15V9h6V7h6v8H7z M15,9v2H8v1h7v2l3-2.6L15,9z M0,0h12v8H0V0z M2.7,4.9V5c0,1.1,0.9,2,1.9,2h4.4
	C10.1,7,11,6.1,11,5V3c0-1.1-0.9-2-1.9-2H5.2L6,2.4h3c0.3,0,0.6,0.3,0.6,0.6v2c0,0.3-0.3,0.6-0.6,0.6H4.7C4.3,5.6,4.1,5.3,4.1,5V4.9
	h1.7L3.4,1.1L1,4.9H2.7z"/>
</svg>
