<?xml version="1.0" encoding="utf-8"?>
<!-- Generator: Adobe Illustrator 21.1.0, SVG Export Plug-In . SVG Version: 6.00 Build 0)  -->
<svg version="1.1" id="Layer_1" xmlns="http://www.w3.org/2000/svg" xmlns:xlink="http://www.w3.org/1999/xlink" x="0px" y="0px"
	 viewBox="0 0 13 13" style="enable-background:new 0 0 13 13;" xml:space="preserve">
<style type="text/css">
	.st0{fill:#FF1DE6;}
</style>
<path class="st0" d="M7.7,13L4,9.4V7.6L7.7,11L13,5v2.1L7.7,13z M5.9,7H8V6H4v1H3V6H2v1h1v1H2v1h1v2H0V0h10v6L7,8L5.9,7z M3,2H2v1h1
	V2z M3,4H2v1h1V4z M8,2H4v1h4V2z M8,4H4v1h4V4z"/>
</svg>
