<?xml version="1.0" encoding="utf-8"?>
<!-- Generator: Adobe Illustrator 21.1.0, SVG Export Plug-In . SVG Version: 6.00 Build 0)  -->
<svg version="1.1" id="Layer_1" xmlns="http://www.w3.org/2000/svg" xmlns:xlink="http://www.w3.org/1999/xlink" x="0px" y="0px"
	 viewBox="0 0 15 14" style="enable-background:new 0 0 15 14;" xml:space="preserve">
<style type="text/css">
	.st0{fill:#FF5D27;}
</style>
<path class="st0" d="M11.1,7c2,1.4,3.2,2.8,2.8,3.5c-0.2,0.3-0.5,0.4-1,0.4c-0.9,0-2.1-0.3-3.6-0.9c-0.3,2.4-1,4-1.8,4
	c-0.8,0-1.5-1.6-1.8-4c-1.5,0.6-2.7,0.9-3.6,0.9c-0.5,0-0.9-0.1-1-0.4C0.7,9.8,1.8,8.4,3.9,7c-2-1.4-3.2-2.8-2.8-3.5
	c0.2-0.3,0.5-0.4,1-0.4C3,3.1,4.2,3.5,5.7,4c0.3-2.4,1-4,1.8-4S9,1.7,9.3,4c1.5-0.6,2.7-0.9,3.6-0.9c0.5,0,0.9,0.1,1,0.4
	C14.3,4.2,13.2,5.5,11.1,7z M12.5,9.7c-0.2-0.3-0.5-0.6-1-1c-0.4-0.3-0.9-0.7-1.4-1C9.9,7.8,9.7,7.9,9.5,8.1c0,0.3,0,0.5-0.1,0.7
	C10.7,9.4,11.8,9.7,12.5,9.7z M7.9,6.3C7.8,6.2,7.6,6.2,7.5,6.1C7.4,6.2,7.2,6.2,7.1,6.3C6.9,6.4,6.8,6.5,6.7,6.5c0,0.2,0,0.3,0,0.5
	c0,0.2,0,0.3,0,0.5c0.1,0.1,0.3,0.2,0.4,0.2c0.1,0.1,0.3,0.1,0.4,0.2c0.1-0.1,0.3-0.1,0.4-0.2c0.1-0.1,0.3-0.2,0.4-0.2
	c0-0.2,0-0.3,0-0.5c0-0.2,0-0.3,0-0.5C8.2,6.5,8.1,6.4,7.9,6.3z M7.1,11.1c0.1,0.6,0.3,1,0.4,1.3c0.1-0.3,0.3-0.7,0.4-1.3
	c0.1-0.5,0.2-1.1,0.3-1.6C8,9.4,7.7,9.3,7.5,9.2C7.3,9.3,7,9.4,6.8,9.5C6.9,10.1,7,10.6,7.1,11.1z M3.5,8.7c-0.5,0.4-0.8,0.8-1,1
	c0.7-0.1,1.8-0.4,3.1-0.9c0-0.2,0-0.5,0-0.7C5.3,8,5.1,7.8,4.9,7.7C4.4,8,3.9,8.4,3.5,8.7z M2.5,4.3c0.2,0.3,0.5,0.6,1,1
	c0.4,0.3,0.9,0.7,1.4,1c0.2-0.1,0.4-0.3,0.6-0.4c0-0.3,0-0.5,0.1-0.7C4.3,4.6,3.2,4.3,2.5,4.3z M7.9,2.9c-0.1-0.6-0.3-1-0.4-1.3
	C7.4,1.8,7.2,2.3,7.1,2.9C7,3.4,6.9,3.9,6.8,4.5C7,4.6,7.3,4.7,7.5,4.8C7.7,4.7,8,4.6,8.2,4.5C8.1,3.9,8,3.4,7.9,2.9z M9.4,5.2
	c0,0.2,0,0.5,0,0.7C9.7,6,9.9,6.2,10.1,6.3c0.5-0.3,1-0.7,1.4-1c0.5-0.4,0.8-0.8,1-1C11.8,4.3,10.7,4.6,9.4,5.2z"/>
</svg>
