<svg 
 xmlns="http://www.w3.org/2000/svg"
 xmlns:xlink="http://www.w3.org/1999/xlink"
 width="40px" height="34px">
<path fill-rule="evenodd"  fill="rgb(120, 120, 120)"
 d="M2.000,0.000 L38.000,0.000 C39.105,0.000 40.000,0.895 40.000,2.000 L40.000,32.000 C40.000,33.105 39.105,34.000 38.000,34.000 L2.000,34.000 C0.895,34.000 0.000,33.105 0.000,32.000 L0.000,2.000 C0.000,0.895 0.895,0.000 2.000,0.000 Z"/>
<path fill-rule="evenodd"  fill="rgb(2, 252, 29)"
 d="M13.000,30.000 L13.000,21.000 L15.000,18.000 L19.000,18.000 L21.000,21.000 L27.000,21.000 L27.000,30.000 L13.000,30.000 ZM22.000,15.000 L19.000,15.000 L19.000,9.000 L15.000,9.000 L20.457,3.010 L26.000,9.000 L22.000,9.000 L22.000,15.000 Z"/>
</svg>