<?xml version="1.0" encoding="utf-8"?>
<!-- Generator: Adobe Illustrator 21.1.0, SVG Export Plug-In . SVG Version: 6.00 Build 0)  -->
<svg version="1.1" id="Layer_1" xmlns="http://www.w3.org/2000/svg" xmlns:xlink="http://www.w3.org/1999/xlink" x="0px" y="0px"
	 viewBox="0 0 12 10" style="enable-background:new 0 0 12 10;" xml:space="preserve">
<style type="text/css">
	.st0{fill:#EB00D2;}
</style>
<path class="st0" d="M0,10V2h1.1L2,0h3l1,2h6v8H0z M9,4.5C8.9,4.4,8.7,4.3,8.5,4.3c-0.4,0-1,0.1-1.6,0.4C6.7,3.7,6.4,3,6,3
	C5.6,3,5.3,3.7,5.2,4.7C4.5,4.5,3.9,4.3,3.5,4.3C3.3,4.3,3.1,4.4,3,4.5C2.9,4.8,3.4,5.4,4.3,6C3.4,6.6,2.9,7.2,3,7.5
	c0.1,0.1,0.2,0.2,0.5,0.2c0.4,0,1-0.1,1.6-0.4C5.3,8.3,5.6,9,6,9c0.4,0,0.7-0.7,0.8-1.7c0.7,0.2,1.3,0.4,1.6,0.4
	c0.2,0,0.4-0.1,0.5-0.2C9.1,7.2,8.6,6.6,7.7,6C8.6,5.4,9.1,4.8,9,4.5z M6.9,6.8c0-0.1,0-0.2,0-0.3C7,6.4,7.1,6.3,7.2,6.3
	c0.2,0.1,0.5,0.3,0.6,0.4c0.2,0.2,0.4,0.3,0.5,0.4C8,7.1,7.5,7,6.9,6.8z M6.9,5.5c0-0.1,0-0.2,0-0.3C7.5,5,8,4.9,8.3,4.8
	C8.2,4.9,8.1,5.1,7.8,5.3C7.7,5.4,7.4,5.6,7.2,5.7C7.1,5.6,7,5.6,6.9,5.5z M6.2,6.3C6.1,6.3,6.1,6.4,6,6.4c-0.1,0-0.1-0.1-0.2-0.1
	c-0.1,0-0.1-0.1-0.2-0.1c0-0.1,0-0.1,0-0.2c0-0.1,0-0.1,0-0.2c0.1,0,0.1-0.1,0.2-0.1c0.1,0,0.1-0.1,0.2-0.1c0.1,0,0.1,0.1,0.2,0.1
	c0.1,0,0.1,0.1,0.2,0.1c0,0.1,0,0.1,0,0.2c0,0.1,0,0.1,0,0.2C6.3,6.2,6.3,6.3,6.2,6.3z M5.7,4.9c0-0.3,0.1-0.5,0.1-0.7
	C5.9,4,5.9,3.8,6,3.7C6.1,3.8,6.1,4,6.2,4.2c0.1,0.2,0.1,0.5,0.1,0.7C6.2,5,6.1,5,6,5.1C5.9,5,5.8,5,5.7,4.9z M6.3,7.1
	c0,0.3-0.1,0.5-0.1,0.7C6.1,8,6.1,8.2,6,8.3C5.9,8.2,5.9,8,5.8,7.8C5.8,7.6,5.7,7.3,5.7,7.1C5.8,7,5.9,7,6,6.9C6.1,7,6.2,7,6.3,7.1z
	 M4.8,5.7C4.6,5.6,4.3,5.4,4.2,5.3C3.9,5.1,3.8,4.9,3.7,4.8C4,4.9,4.5,5,5.1,5.2c0,0.1,0,0.2,0,0.3C5,5.6,4.9,5.7,4.8,5.7z M5.1,6.5
	c0,0.1,0,0.2,0,0.3C4.5,7,4,7.1,3.7,7.2c0.1-0.1,0.2-0.3,0.5-0.4c0.2-0.1,0.4-0.3,0.6-0.4C4.9,6.4,5,6.4,5.1,6.5z"/>
</svg>
