<?xml version="1.0" encoding="utf-8"?>
<!-- Generator: Adobe Illustrator 21.1.0, SVG Export Plug-In . SVG Version: 6.00 Build 0)  -->
<svg version="1.1" id="Layer_1" xmlns="http://www.w3.org/2000/svg" xmlns:xlink="http://www.w3.org/1999/xlink" x="0px" y="0px"
	 viewBox="0 0 12 12" style="enable-background:new 0 0 12 12;" xml:space="preserve">
<style type="text/css">
	.st0{fill:#A855FF;}
</style>
<path class="st0" d="M12,0L12,0L12,0H4l0,0l0,0v7.9C3.5,7.5,3,7.2,2.3,7.2C1,7.2,0,8.3,0,9.6S1,12,2.3,12c1.2,0,2.2-1,2.3-2.2
	c0,0,0,0,0-0.1V1.9h6.7v6c-0.4-0.4-1-0.7-1.6-0.7c-1.3,0-2.3,1.1-2.3,2.4s1,2.4,2.3,2.4c1.2,0,2.2-1,2.3-2.2c0,0,0,0,0-0.1L12,0z"/>
</svg>
