<?xml version="1.0" encoding="utf-8"?>
<!-- Generator: Adobe Illustrator 21.1.0, SVG Export Plug-In . SVG Version: 6.00 Build 0)  -->
<svg version="1.1" id="Layer_1" xmlns="http://www.w3.org/2000/svg" xmlns:xlink="http://www.w3.org/1999/xlink" x="0px" y="0px"
	 viewBox="0 0 19 16" style="enable-background:new 0 0 19 16;" xml:space="preserve">
<style type="text/css">
	.st0{fill:#A855FF;}
</style>
<path class="st0" d="M18,14.7h-7c-0.3,0,0.8-1.1,0.1-1.7c-0.1,0-0.1-0.1-0.2-0.1c0.4,0,0.8,0,1.1-0.1c0.4-0.2,0.4-1,1-1
	c2.4,0,5,0,5,0V2h-8v2H9V2c0-0.5,0.4-1,1-1h8c0.6,0,1,0.4,1,1v11.8C19,14.3,18.6,14.7,18,14.7z M14,12.2c-0.6,0-1,0.5-1,1s0.5,1,1,1
	s1-0.5,1-1S14.6,12.2,14,12.2z M9,12.7c0.4,0,1.2-0.3,1.9,0.1c-0.5,0-0.9-0.1-0.9-0.1H9z M9,4.9h1v0.3c1.9,0.5,3.6,1.4,5,2.7
	l-1.2,1.3c-1.7-1.5-3.9-2.4-6.3-2.4S2.9,7.7,1.2,9.2L0,7.9c2-1.8,4.6-3,7.5-3C8,4.9,8.5,4.9,9,4.9L9,4.9z M9,8.9L9,8.9h1v0.3
	c0.9,0.3,1.8,0.9,2.5,1.5L11.3,12c-1-0.9-2.4-1.4-3.8-1.4c-1.5,0-2.8,0.5-3.8,1.4l-1.2-1.4c1.4-1.2,3.1-1.9,5-1.9
	C8,8.7,8.5,8.8,9,8.9z M10.1,13.4l-1.5,1.7c-0.4,0.5-1.2,0.9-1.9,0.1L5,13.4c0.7-0.6,1.6-1,2.6-1C8.5,12.4,9.4,12.8,10.1,13.4z"/>
</svg>
