<?xml version="1.0" encoding="utf-8"?>
<!-- Generator: Adobe Illustrator 21.1.0, SVG Export Plug-In . SVG Version: 6.00 Build 0)  -->
<svg version="1.1" id="Layer_1" xmlns="http://www.w3.org/2000/svg" xmlns:xlink="http://www.w3.org/1999/xlink" x="0px" y="0px"
	 viewBox="0 0 16 11" style="enable-background:new 0 0 16 11;" xml:space="preserve">
<style type="text/css">
	.st0{fill:#A0A0A0;stroke:#A855FF;stroke-miterlimit:10;}
	.st1{fill:#A0A0A0;}
</style>
<path class="st0" d="M0,0h16v11H0V0z M1,0h1v1H1V0z M3,0h10v1H3V0z M14,0h1v1h-1V0z M1,2h1v1H1V2z M3,2h10v7H3V2z M14,2h1v1h-1V2z
	 M1,10h1v1H1V10z M3,10h10v1H3V10z M14,10h1v1h-1V10z M1,4h1v1H1V4z M14,4h1v1h-1V4z M1,6h1v1H1V6z M14,6h1v1h-1V6z M1,8h1v1H1V8z
	 M14,8h1v1h-1V8z"/>
<g>
	<rect x="14" y="2" class="st1" width="1" height="1"/>
	<rect x="14" y="8" class="st1" width="1" height="1"/>
	<rect x="3" y="2" class="st1" width="10" height="7"/>
	<rect x="1" class="st1" width="1" height="1"/>
	<rect x="14" y="6" class="st1" width="1" height="1"/>
	<rect x="14" class="st1" width="1" height="1"/>
	<rect x="14" y="4" class="st1" width="1" height="1"/>
	<rect x="3" class="st1" width="10" height="1"/>
	<rect x="3" y="10" class="st1" width="10" height="1"/>
	<rect x="1" y="4" class="st1" width="1" height="1"/>
	<rect x="14" y="10" class="st1" width="1" height="1"/>
	<rect x="1" y="10" class="st1" width="1" height="1"/>
	<rect x="1" y="6" class="st1" width="1" height="1"/>
	<rect x="1" y="2" class="st1" width="1" height="1"/>
	<rect x="1" y="8" class="st1" width="1" height="1"/>
</g>
<g id="Layer_2">
</g>
<g id="Layer_2_1_">
</g>
<g id="Layer_2_2_">
</g>
</svg>
