<svg 
 xmlns="http://www.w3.org/2000/svg"
 xmlns:xlink="http://www.w3.org/1999/xlink"
 width="12px" height="12px">
<path fill-rule="evenodd"  fill="rgb(252, 252, 252)"
 d="M6.003,12.009 C2.694,12.009 0.012,9.324 0.012,6.011 C0.012,2.699 2.694,0.014 6.003,0.014 C9.313,0.014 11.995,2.699 11.995,6.011 C11.995,9.324 9.313,12.009 6.003,12.009 ZM6.010,0.824 C3.144,0.824 0.820,3.151 0.820,6.020 C0.820,8.890 3.144,11.216 6.010,11.216 C8.877,11.216 11.201,8.890 11.201,6.020 C11.201,3.151 8.877,0.824 6.010,0.824 ZM4.189,4.174 L7.829,4.174 L7.829,7.837 L4.189,7.837 L4.189,4.174 Z"/>
</svg>