<svg 
 xmlns="http://www.w3.org/2000/svg"
 xmlns:xlink="http://www.w3.org/1999/xlink"
 width="12px" height="13px">
<path fill-rule="evenodd"  fill="rgb(252, 252, 252)"
 d="M10.000,13.000 L2.000,13.000 C0.895,13.000 -0.000,12.105 -0.000,11.000 L-0.000,2.000 C-0.000,0.895 0.895,-0.000 2.000,-0.000 L10.000,-0.000 C11.105,-0.000 12.000,0.895 12.000,2.000 L12.000,11.000 C12.000,12.105 11.105,13.000 10.000,13.000 ZM11.000,1.000 L1.000,1.000 L1.000,12.000 L11.000,12.000 L11.000,1.000 ZM9.000,5.000 L3.000,5.000 L3.000,4.000 L9.000,4.000 L9.000,5.000 ZM9.000,7.000 L3.000,7.000 L3.000,6.000 L9.000,6.000 L9.000,7.000 ZM9.000,9.000 L3.000,9.000 L3.000,8.000 L9.000,8.000 L9.000,9.000 Z"/>
</svg>