<svg 
 xmlns="http://www.w3.org/2000/svg"
 xmlns:xlink="http://www.w3.org/1999/xlink"
 width="11px" height="11px">
<path fill-rule="evenodd"  fill="rgb(255, 130, 5)"
 d="M2.500,6.000 C3.881,6.000 5.000,7.119 5.000,8.500 C5.000,9.881 3.881,11.000 2.500,11.000 C1.119,11.000 -0.000,9.881 -0.000,8.500 C-0.000,7.119 1.119,6.000 2.500,6.000 Z"/>
<path fill-rule="evenodd"  fill="rgb(255, 130, 5)"
 d="M8.500,0.000 C9.881,0.000 11.000,1.119 11.000,2.500 C11.000,3.881 9.881,5.000 8.500,5.000 C7.119,5.000 6.000,3.881 6.000,2.500 C6.000,1.119 7.119,0.000 8.500,0.000 Z"/>
<path fill-rule="evenodd"  fill="rgb(255, 130, 5)"
 d="M2.550,7.743 L9.743,0.550 L10.450,1.257 L3.257,8.450 L2.550,7.743 Z"/>
</svg>