<svg 
 xmlns="http://www.w3.org/2000/svg"
 xmlns:xlink="http://www.w3.org/1999/xlink"
 width="40px" height="34px">
<path fill-rule="evenodd"  fill="rgb(120, 120, 120)"
 d="M2.000,0.000 L38.000,0.000 C39.105,0.000 40.000,0.895 40.000,2.000 L40.000,32.000 C40.000,33.105 39.105,34.000 38.000,34.000 L2.000,34.000 C0.895,34.000 0.000,33.105 0.000,32.000 L0.000,2.000 C0.000,0.895 0.895,0.000 2.000,0.000 Z"/>
<path fill-rule="evenodd"  fill="rgb(252, 2, 8)"
 d="M13.994,19.823 C13.994,18.898 14.762,17.596 15.706,17.596 L18.755,17.596 C18.943,16.705 19.604,16.000 20.297,16.000 L20.441,16.000 C21.014,16.000 21.769,16.291 22.177,17.596 L25.301,17.596 C26.245,17.596 27.013,18.898 27.013,19.823 C26.468,19.821 14.111,19.820 13.994,19.823 ZM15.000,8.000 L19.000,8.000 L19.000,2.000 L22.000,2.000 L22.000,8.000 L26.000,8.000 L20.543,13.990 L15.000,8.000 ZM25.516,29.695 C25.516,30.418 24.916,31.007 24.179,31.007 L16.829,31.007 C16.091,31.007 15.417,30.418 15.417,29.695 L15.000,21.000 L26.000,21.000 L25.516,29.695 ZM18.030,22.555 C18.030,22.189 17.839,21.873 17.465,21.873 C17.091,21.873 16.892,22.214 16.892,22.581 L16.912,28.511 C16.912,28.877 17.078,29.145 17.452,29.145 C17.826,29.145 18.061,28.857 18.061,28.490 L18.030,22.555 ZM21.011,22.494 C21.011,22.128 20.939,21.906 20.565,21.906 C20.191,21.906 20.013,22.181 20.013,22.548 L19.931,28.531 C19.931,28.898 20.012,29.241 20.386,29.241 C20.761,29.241 21.011,28.923 21.011,28.556 L21.011,22.494 ZM23.492,21.830 C23.118,21.830 23.001,22.168 23.001,22.535 L22.975,28.516 C22.975,28.882 23.054,29.203 23.428,29.203 C23.803,29.203 23.978,28.826 23.978,28.460 L24.034,22.502 C24.034,22.135 23.866,21.830 23.492,21.830 Z"/>
</svg>