<?xml version="1.0" encoding="utf-8"?>
<!-- Generator: Adobe Illustrator 21.1.0, SVG Export Plug-In . SVG Version: 6.00 Build 0)  -->
<svg version="1.1" id="Layer_1" xmlns="http://www.w3.org/2000/svg" xmlns:xlink="http://www.w3.org/1999/xlink" x="0px" y="0px"
	 viewBox="0 0 21 9" style="enable-background:new 0 0 21 9;" xml:space="preserve">
<style type="text/css">
	.st0{fill:#FEFF59;}
</style>
<path class="st0" d="M20.3,7.3v0.8h-5.3V1h5.2v0.8h-4.2v2.2h4v0.8h-4v2.4H20.3z M12.2,7.9c-0.4,0.3-1,0.4-1.7,0.4
	C9.9,8.3,9.3,8.2,8.9,8C8.5,7.7,8.2,7.4,8,7c-0.2-0.4-0.3-1-0.3-1.8V1h0.9v4.1c0,0.6,0.1,1.1,0.2,1.4c0.1,0.3,0.3,0.5,0.6,0.7
	c0.3,0.2,0.6,0.2,1,0.2c0.7,0,1.2-0.2,1.5-0.5c0.3-0.3,0.4-0.9,0.4-1.8V1h0.9v4.1c0,0.7-0.1,1.3-0.2,1.7C12.9,7.3,12.6,7.6,12.2,7.9
	z M2.3,7.2C2.6,7.4,3,7.5,3.5,7.5c0.5,0,1-0.2,1.3-0.5c0.4-0.3,0.6-0.8,0.7-1.4l0.9,0.2C6.3,6.7,6,7.3,5.4,7.7
	C4.9,8.1,4.3,8.3,3.5,8.3c-0.8,0-1.4-0.2-1.9-0.5C1.2,7.5,0.8,7.1,0.6,6.5C0.3,5.9,0.2,5.2,0.2,4.6c0-0.7,0.1-1.4,0.4-2
	s0.7-1,1.2-1.3c0.5-0.3,1.1-0.4,1.7-0.4c0.7,0,1.3,0.2,1.8,0.5c0.5,0.4,0.8,0.9,1,1.5L5.5,3.2C5.3,2.7,5.1,2.3,4.7,2.1
	C4.4,1.8,4,1.7,3.5,1.7c-0.6,0-1,0.1-1.4,0.4C1.8,2.4,1.5,2.7,1.4,3.2C1.2,3.6,1.2,4.1,1.2,4.6c0,0.6,0.1,1.1,0.3,1.6
	C1.6,6.6,1.9,6.9,2.3,7.2z"/>
</svg>
