<?xml version="1.0" encoding="utf-8"?>
<!-- Generator: Adobe Illustrator 21.1.0, SVG Export Plug-In . SVG Version: 6.00 Build 0)  -->
<svg version="1.1" id="Layer_1" xmlns="http://www.w3.org/2000/svg" xmlns:xlink="http://www.w3.org/1999/xlink" x="0px" y="0px"
	 viewBox="0 0 10 11" style="enable-background:new 0 0 10 11;" xml:space="preserve">
<style type="text/css">
	.st0{fill:#29F40C;}
	.st1{fill:#120B09;}
	.st2{fill:#0B0706;}
</style>
<path class="st0" d="M0,0h10v11H0V0z M2,2h1v1H2V2z M4,2h4v1H4V2z M2,4h1v1H2V4z M4,4h4v1H4V4z M2,6h1v1H2V6z M4,6h4v1H4V6z M2,8h1
	v1H2V8z M4,8h4v1H4V8z"/>
<rect x="2" y="2" class="st1" width="1" height="1"/>
<rect x="4" y="2" class="st2" width="4" height="1"/>
<rect x="2" y="4" class="st1" width="1" height="1"/>
<rect x="4" y="4" class="st1" width="4" height="1"/>
<rect x="2" y="6" class="st1" width="1" height="1"/>
<rect x="4" y="6" class="st1" width="4" height="1"/>
<rect x="2" y="8" class="st1" width="1" height="1"/>
<rect x="4" y="8" class="st1" width="4" height="1"/>
</svg>
