<svg 
 xmlns="http://www.w3.org/2000/svg"
 xmlns:xlink="http://www.w3.org/1999/xlink"
 width="11px" height="14px">
<path fill-rule="evenodd"  fill="rgb(244, 2, 250)"
 d="M9.524,9.089 C8.852,9.686 8.049,10.214 7.116,10.672 L6.883,10.397 C7.608,9.938 8.204,9.433 8.670,8.882 C9.084,8.377 9.291,7.872 9.291,7.368 C9.291,6.863 9.084,6.427 8.670,6.059 C8.152,5.600 7.531,5.141 6.806,4.682 C6.081,4.223 5.518,3.363 5.000,2.813 L5.000,12.000 L4.950,12.000 C4.718,13.141 3.709,14.000 2.500,14.000 C1.119,14.000 0.000,12.881 0.000,11.500 C0.000,10.119 1.119,9.000 2.500,9.000 C3.065,9.000 3.581,9.195 4.000,9.511 L4.000,0.000 C4.673,0.551 5.020,0.964 5.330,1.240 C5.900,1.745 6.935,2.456 8.437,3.374 C10.146,4.430 11.000,5.440 11.000,6.404 C11.000,7.322 10.508,8.217 9.524,9.089 Z"/>
</svg>