<svg 
 xmlns="http://www.w3.org/2000/svg"
 xmlns:xlink="http://www.w3.org/1999/xlink"
 width="12px" height="12px">
<path fill-rule="evenodd"  fill="rgb(2, 224, 250)"
 d="M6.000,12.000 C2.686,12.000 -0.000,9.314 -0.000,6.000 C-0.000,2.686 2.686,-0.000 6.000,-0.000 C9.314,-0.000 12.000,2.686 12.000,6.000 C12.000,9.314 9.314,12.000 6.000,12.000 ZM9.960,4.765 L9.253,2.540 C9.127,2.144 8.816,2.083 8.561,2.407 L8.213,2.850 C7.482,2.253 6.543,1.927 5.543,2.006 C3.418,2.172 1.826,4.095 1.986,6.301 C2.146,8.507 3.998,10.161 6.122,9.995 C7.439,9.892 8.579,9.071 9.168,8.013 C9.228,7.884 9.440,7.242 8.916,6.948 C8.480,6.704 8.118,6.914 8.048,7.105 C7.720,7.840 6.925,8.475 6.017,8.546 C4.663,8.651 3.483,7.598 3.381,6.192 C3.279,4.786 4.294,3.561 5.648,3.455 C6.275,3.406 6.864,3.607 7.327,3.975 L6.959,4.442 C6.705,4.765 6.823,5.070 7.223,5.120 L9.463,5.397 C9.863,5.446 10.086,5.162 9.960,4.765 Z"/>
</svg>