<svg 
 xmlns="http://www.w3.org/2000/svg"
 xmlns:xlink="http://www.w3.org/1999/xlink"
 width="29px" height="10px">
<path fill-rule="evenodd"  fill="rgb(2, 252, 29)"
 d="M26.817,7.999 L24.089,4.785 L24.089,4.790 L21.367,7.999 L19.000,7.999 L24.092,2.000 L24.092,2.000 L29.000,7.999 L26.817,7.999 ZM4.000,8.000 L14.000,8.000 L14.000,10.000 L4.000,10.000 L4.000,8.000 ZM4.000,4.000 L14.000,4.000 L14.000,6.000 L4.000,6.000 L4.000,4.000 ZM4.000,-0.000 L14.000,-0.000 L14.000,2.000 L4.000,2.000 L4.000,-0.000 ZM-0.000,8.000 L2.000,8.000 L2.000,10.000 L-0.000,10.000 L-0.000,8.000 ZM-0.000,4.000 L2.000,4.000 L2.000,6.000 L-0.000,6.000 L-0.000,4.000 ZM-0.000,-0.000 L2.000,-0.000 L2.000,2.000 L-0.000,2.000 L-0.000,-0.000 Z"/>
</svg>