<?xml version="1.0" encoding="utf-8"?>
<!-- Generator: Adobe Illustrator 21.1.0, SVG Export Plug-In . SVG Version: 6.00 Build 0)  -->
<svg version="1.1" id="Layer_1" xmlns="http://www.w3.org/2000/svg" xmlns:xlink="http://www.w3.org/1999/xlink" x="0px" y="0px"
	 viewBox="0 0 15 15" style="enable-background:new 0 0 15 15;" xml:space="preserve">
<style type="text/css">
	.st0{fill:#E900F8;stroke:#000000;}
</style>
<path class="st0" d="M13.5,14.5h-12c-0.6,0-1-0.4-1-1v-12c0-0.6,0.4-1,1-1h12c0.6,0,1,0.4,1,1v12C14.5,14.1,14.1,14.5,13.5,14.5z
	 M11.8,9.1C11,8.3,9.9,8.2,9.2,8.8L8.3,7.4l1.9-3.3l-0.1-1.6L7.5,6.3L4.9,2.5L4.8,4.1l1.9,3.3L5.8,8.8C5.1,8.2,3.9,8.3,3.2,9.1
	C2.4,10,2.3,11.3,3,12s1.9,0.7,2.7-0.2c0.3-0.3,0.5-0.6,0.6-1l1.2-2l1.2,2c0.1,0.3,0.3,0.7,0.6,1l0,0l0,0l0,0c0.8,0.8,2,0.9,2.7,0.2
	C12.7,11.2,12.6,10,11.8,9.1z M9.9,11.1C9.5,10.7,9.4,10,9.8,9.6c0.4-0.4,1-0.3,1.4,0.1c0.4,0.4,0.5,1.1,0.1,1.5
	C11,11.6,10.3,11.6,9.9,11.1z M3.7,11.3c-0.4-0.4-0.3-1.1,0.1-1.5s1.1-0.5,1.4-0.1c0.4,0.4,0.3,1.1-0.1,1.5
	C4.7,11.6,4,11.7,3.7,11.3z"/>
</svg>
