<svg 
 xmlns="http://www.w3.org/2000/svg"
 xmlns:xlink="http://www.w3.org/1999/xlink"
 width="16px" height="16px">
<path fill-rule="evenodd"  fill="rgb(2, 252, 46)"
 d="M15.994,8.967 L15.994,7.036 L13.610,7.036 C13.439,6.043 13.017,5.137 12.404,4.391 L14.141,2.321 L12.662,1.080 L10.940,3.131 C10.342,2.770 9.675,2.515 8.960,2.393 L8.960,0.002 L7.029,0.002 L7.029,2.393 C6.314,2.515 5.647,2.770 5.049,3.131 L3.328,1.080 L1.849,2.320 L3.586,4.390 C2.972,5.137 2.550,6.043 2.379,7.036 L-0.005,7.036 L-0.005,8.967 L2.376,8.967 C2.545,9.962 2.966,10.871 3.579,11.620 L1.849,13.682 L3.328,14.923 L5.040,12.883 C5.640,13.247 6.311,13.504 7.029,13.626 L7.029,16.000 L8.960,16.000 L8.960,13.626 C9.678,13.504 10.349,13.247 10.949,12.883 L12.662,14.923 L14.141,13.682 L12.410,11.620 C13.023,10.871 13.444,9.962 13.612,8.967 L15.994,8.967 ZM7.994,11.175 C6.247,11.175 4.830,9.758 4.830,8.010 C4.830,6.262 6.247,4.845 7.994,4.845 C9.742,4.845 11.159,6.262 11.159,8.010 C11.159,9.758 9.742,11.175 7.994,11.175 Z"/>
</svg>