<svg 
 xmlns="http://www.w3.org/2000/svg"
 xmlns:xlink="http://www.w3.org/1999/xlink"
 width="12px" height="16px">
<path fill-rule="evenodd"  fill="rgb(2, 252, 29)"
 d="M8.372,13.382 L8.443,14.447 C8.487,15.105 8.056,15.385 7.486,15.070 L4.288,13.301 C3.717,12.986 3.679,12.407 4.202,12.016 L7.135,9.825 C7.658,9.434 8.122,9.652 8.166,10.310 L8.255,11.641 C9.383,11.012 10.149,9.794 10.149,8.399 C10.149,7.628 9.918,6.890 9.481,6.264 C9.224,5.896 9.310,5.385 9.672,5.124 C10.036,4.863 10.538,4.950 10.795,5.319 C11.426,6.222 11.760,7.287 11.760,8.399 C11.760,10.672 10.350,12.617 8.372,13.382 ZM7.937,3.983 L5.005,6.175 C4.481,6.566 4.017,6.348 3.973,5.690 L3.915,4.821 C2.740,5.397 1.907,6.596 1.853,8.008 C1.824,8.778 2.026,9.524 2.438,10.166 C2.680,10.544 2.575,11.051 2.202,11.297 C2.057,11.393 1.893,11.435 1.732,11.429 C1.480,11.419 1.236,11.289 1.088,11.058 C0.493,10.130 0.201,9.054 0.244,7.945 C0.331,5.680 1.804,3.798 3.800,3.106 L3.696,1.552 C3.652,0.895 4.083,0.614 4.654,0.930 L7.851,2.699 C8.422,3.014 8.461,3.592 7.937,3.983 Z"/>
</svg>