<svg 
 xmlns="http://www.w3.org/2000/svg"
 xmlns:xlink="http://www.w3.org/1999/xlink"
 width="20px" height="20px">
<path fill-rule="evenodd"  fill="rgb(244, 2, 250)"
 d="M2.000,-0.000 L18.000,-0.000 C19.104,-0.000 20.000,0.895 20.000,2.000 L20.000,18.000 C20.000,19.104 19.104,20.000 18.000,20.000 L2.000,20.000 C0.895,20.000 -0.000,19.104 -0.000,18.000 L-0.000,2.000 C-0.000,0.895 0.895,-0.000 2.000,-0.000 Z"/>
<path fill-rule="evenodd"  fill="rgb(0, 0, 0)"
 d="M11.000,15.000 L11.000,11.000 L15.000,11.000 L15.000,15.000 L11.000,15.000 ZM11.000,5.000 L15.000,5.000 L15.000,9.000 L11.000,9.000 L11.000,5.000 ZM5.000,11.000 L9.000,11.000 L9.000,15.000 L5.000,15.000 L5.000,11.000 ZM5.000,5.000 L9.000,5.000 L9.000,9.000 L5.000,9.000 L5.000,5.000 Z"/>
</svg>