<svg 
 xmlns="http://www.w3.org/2000/svg"
 xmlns:xlink="http://www.w3.org/1999/xlink"
 width="30px" height="12px">
<path fill-rule="evenodd"  fill="rgb(249, 0, 6)"
 d="M9.000,3.000 L23.000,3.000 L23.000,12.000 L9.000,12.000 L9.000,3.000 ZM10.000,6.000 L12.000,6.000 L12.000,8.000 L10.000,8.000 L10.000,6.000 ZM13.000,6.000 L22.000,6.000 L22.000,8.000 L13.000,8.000 L13.000,6.000 ZM10.000,9.000 L12.000,9.000 L12.000,11.000 L10.000,11.000 L10.000,9.000 ZM13.000,9.000 L22.000,9.000 L22.000,11.000 L13.000,11.000 L13.000,9.000 Z"/>
<path fill-rule="evenodd"  fill="rgb(0, 249 10)"
 d="M28.244,3.311 C29.649,5.697 28.763,8.652 26.263,9.904 L25.480,8.582 C27.215,7.713 27.831,5.662 26.857,4.005 L25.681,4.594 L25.719,0.717 L29.283,2.790 L28.244,3.311 ZM8.000,9.000 L7.000,9.000 L7.000,-0.000 L21.000,-0.000 L21.000,2.000 L8.000,2.000 L8.000,9.000 ZM15.000,2.000 L20.000,2.000 L20.000,1.000 L15.000,1.000 L15.000,2.000 ZM13.000,2.000 L13.000,1.000 L8.000,1.000 L8.000,2.000 L13.000,2.000 ZM2.543,6.781 L3.778,6.203 L3.738,10.002 L-0.002,7.971 L1.088,7.461 C-0.386,5.124 0.544,2.228 3.166,1.002 L3.988,2.297 C2.168,3.149 1.522,5.158 2.543,6.781 Z"/>
</svg>