<svg 
 xmlns="http://www.w3.org/2000/svg"
 xmlns:xlink="http://www.w3.org/1999/xlink"
 width="26px" height="26px">
<path fill-rule="evenodd"  fill="rgb(255, 130, 5)"
 d="M13.000,1.000 C19.617,1.000 25.000,6.383 25.000,13.000 C25.000,19.617 19.617,25.000 13.000,25.000 C6.383,25.000 1.000,19.617 1.000,13.000 C1.000,6.383 6.383,1.000 13.000,1.000 M13.000,0.000 C5.820,0.000 0.000,5.820 0.000,13.000 C0.000,20.180 5.820,26.000 13.000,26.000 C20.180,26.000 26.000,20.180 26.000,13.000 C26.000,5.820 20.180,0.000 13.000,0.000 L13.000,0.000 Z"/>
<path fill-rule="evenodd"  fill="rgb(255, 130, 5)"
 d="M21.013,14.813 L21.013,15.874 L16.773,15.874 L16.773,10.136 L20.951,10.136 L20.951,11.197 L18.002,11.197 L18.002,12.426 L20.708,12.426 L20.708,13.407 L18.002,13.407 L18.002,14.813 L21.013,14.813 ZM12.858,16.011 C11.349,16.011 10.480,15.272 10.480,13.704 L10.480,10.136 L11.708,10.136 L11.708,13.704 C11.708,14.331 11.865,14.950 12.858,14.950 C13.735,14.950 14.016,14.564 14.016,13.704 L14.016,10.136 L15.244,10.136 L15.244,13.704 C15.244,15.255 14.353,16.011 12.858,16.011 ZM6.737,14.950 C7.488,14.950 7.911,14.428 8.005,13.664 L9.194,13.664 C9.069,15.103 8.114,16.011 6.737,16.011 C5.016,16.011 3.992,14.685 3.992,13.029 C3.992,11.325 5.016,9.999 6.737,9.999 C7.958,9.999 8.998,10.738 9.147,12.065 L7.958,12.065 C7.872,11.494 7.340,11.060 6.737,11.060 C5.634,11.060 5.220,12.024 5.220,13.029 C5.220,13.986 5.634,14.950 6.737,14.950 Z"/>
</svg>