<svg 
 xmlns="http://www.w3.org/2000/svg"
 xmlns:xlink="http://www.w3.org/1999/xlink"
 width="19px" height="14px">
<path fill-rule="evenodd"  fill="rgb(2, 252, 29)"
 d="M5.000,5.000 L7.000,5.000 L7.000,8.000 L5.000,8.000 L5.000,5.000 ZM13.000,9.000 L16.000,9.000 L16.000,1.000 L3.000,1.000 L3.000,9.000 L6.000,9.000 L7.000,10.000 L2.000,10.000 L2.000,0.000 L17.000,0.000 L17.000,10.000 L13.000,10.000 L13.000,9.000 ZM8.000,5.000 L12.000,2.000 L12.000,11.000 L8.000,8.000 L8.000,5.000 ZM10.000,12.000 L13.000,12.000 L13.000,11.000 L17.000,11.000 L19.000,14.000 L-0.000,14.000 L2.000,11.000 L8.890,11.000 L10.000,12.000 Z"/>
</svg>