<svg 
 xmlns="http://www.w3.org/2000/svg"
 xmlns:xlink="http://www.w3.org/1999/xlink"
 width="29px" height="30px">
<path fill-rule="evenodd"  fill="rgb(25, 25, 25)"
 d="M2.000,-0.000 L29.000,-0.000 L29.000,30.000 L2.000,30.000 C0.895,30.000 -0.000,29.104 -0.000,28.000 L-0.000,2.000 C-0.000,0.895 0.895,-0.000 2.000,-0.000 Z"/>
<path fill-rule="evenodd"  fill="rgb(2, 252, 29)"
 d="M18.167,18.257 C18.167,18.257 18.167,18.159 18.167,14.515 C18.166,8.388 17.481,8.901 17.250,8.901 C16.731,8.901 13.583,8.901 13.583,8.901 L12.667,7.029 C13.744,7.029 16.309,7.010 17.099,7.010 C17.927,7.010 20.000,7.172 20.000,14.515 C20.000,18.076 20.000,22.000 20.000,22.000 L8.989,22.000 L8.989,12.341 L11.750,16.386 L11.750,18.257 L14.500,18.257 L9.000,7.965 L10.833,7.029 L16.333,18.257 L18.167,18.257 Z"/>
</svg>