<?xml version="1.0" encoding="utf-8"?>
<!-- Generator: Adobe Illustrator 21.1.0, SVG Export Plug-In . SVG Version: 6.00 Build 0)  -->
<svg version="1.1" id="Layer_1" xmlns="http://www.w3.org/2000/svg" xmlns:xlink="http://www.w3.org/1999/xlink" x="0px" y="0px"
	 viewBox="0 0 24 26" style="enable-background:new 0 0 24 26;" xml:space="preserve">
<style type="text/css">
	.st0{fill:#191919;}
	.st1{fill:#13F20C;}
</style>
<path class="st0" d="M2,0h22v26H2c-1.1,0-2-0.9-2-2V2C0,0.9,0.9,0,2,0z"/>
<path class="st1" d="M15.3,16.5c0,0,0-0.1,0-3.5c0-5.7-0.6-5.2-0.8-5.2c-0.5,0-3.3,0-3.3,0L10.3,6c1,0,3.3,0,4,0
	c0.8,0,2.6,0.1,2.6,7c0,3.3,0,7,0,7H7v-9l2.5,3.8v1.7H12L7,6.9L8.7,6l5,10.5H15.3z"/>
</svg>
