<svg 
 xmlns="http://www.w3.org/2000/svg"
 xmlns:xlink="http://www.w3.org/1999/xlink"
 width="30px" height="30px">
<path fill-rule="evenodd"  fill="rgb(25, 25, 25)"
 d="M2.000,-0.000 L28.000,-0.000 C29.104,-0.000 30.000,0.895 30.000,2.000 L30.000,28.000 C30.000,29.104 29.104,30.000 28.000,30.000 L2.000,30.000 C0.895,30.000 -0.000,29.104 -0.000,28.000 L-0.000,2.000 C-0.000,0.895 0.895,-0.000 2.000,-0.000 Z"/>
<path fill-rule="evenodd"  fill="rgb(2, 252, 29)"
 d="M25.000,15.016 L19.991,17.993 L19.991,12.012 L25.000,15.016 Z"/>
<path fill-rule="evenodd"  fill="rgb(255, 255, 255)"
 d="M14.000,21.000 L14.000,9.000 L15.000,9.000 L15.000,21.000 L14.000,21.000 ZM11.000,9.000 L12.000,9.000 L12.000,21.000 L11.000,21.000 L11.000,9.000 ZM8.000,9.000 L9.000,9.000 L9.000,21.000 L8.000,21.000 L8.000,9.000 Z"/>
</svg>