<svg 
 xmlns="http://www.w3.org/2000/svg"
 xmlns:xlink="http://www.w3.org/1999/xlink"
 width="50px" height="26px">
<path fill-rule="evenodd"  fill="rgb(25, 25, 25)"
 d="M2.000,0.000 L48.000,0.000 C49.105,0.000 50.000,0.895 50.000,2.000 L50.000,24.000 C50.000,25.105 49.105,26.000 48.000,26.000 L2.000,26.000 C0.895,26.000 0.000,25.105 0.000,24.000 L0.000,2.000 C0.000,0.895 0.895,0.000 2.000,0.000 Z"/>
<path fill-rule="evenodd"  fill="rgb(2, 252, 29)"
 d="M10.000,13.000 L15.009,10.038 L15.009,15.988 L10.000,13.000 Z"/>
<path fill-rule="evenodd"  fill="rgb(2, 252, 29)"
 d="M16.000,13.000 L21.009,10.038 L21.009,15.988 L16.000,13.000 Z"/>
<path fill-rule="evenodd"  fill="rgb(2, 252, 29)"
 d="M22.000,13.000 L27.009,10.038 L27.009,15.988 L22.000,13.000 Z"/>
<path fill-rule="evenodd"  fill="rgb(252, 252, 252)"
 d="M38.000,19.000 L38.000,7.000 L39.000,7.000 L39.000,19.000 L38.000,19.000 ZM35.000,7.000 L36.000,7.000 L36.000,19.000 L35.000,19.000 L35.000,7.000 ZM32.000,7.000 L33.000,7.000 L33.000,19.000 L32.000,19.000 L32.000,7.000 Z"/>
</svg>