<?xml version="1.0" encoding="utf-8"?>
<!-- Generator: Adobe Illustrator 21.1.0, SVG Export Plug-In . SVG Version: 6.00 Build 0)  -->
<svg version="1.1" id="Layer_1" xmlns="http://www.w3.org/2000/svg" xmlns:xlink="http://www.w3.org/1999/xlink" x="0px" y="0px"
	 viewBox="0 0 50 26" style="enable-background:new 0 0 50 26;" xml:space="preserve">
<style type="text/css">
	.st0{fill:#191919;}
	.st1{fill:#E00500;}
</style>
<path class="st0" d="M2,0h46c1.1,0,2,0.9,2,2v22c0,1.1-0.9,2-2,2H2c-1.1,0-2-0.9-2-2V2C0,0.9,0.9,0,2,0z"/>
<path class="st1" d="M19,20v-8h1c0,0,0-3.2,0-4c0-2.6,2.9-4,5-4c2,0,5,1.5,5,4c0,2.1,0,4,0,4h1v8H19z M24,16.1V19h2v-2.9
	c0.6-0.3,1-0.8,1-1.4c0-0.9-0.9-1.7-2-1.7s-2,0.7-2,1.7C23,15.3,23.4,15.8,24,16.1z M28,8c0-1.1-1.1-2-3-2c-2,0-3,1-3,2
	c0,1.3,0,4,0,4h6C28,12,28,9,28,8z"/>
</svg>
