<svg 
 xmlns="http://www.w3.org/2000/svg"
 xmlns:xlink="http://www.w3.org/1999/xlink"
 width="12px" height="16px">
<path fill-rule="evenodd"  fill="rgb(248, 6, 20)"
 d="M-0.000,16.000 L-0.000,8.000 L1.000,8.000 C1.000,8.000 1.000,4.763 1.000,4.000 C1.000,1.393 3.932,-0.000 6.000,-0.000 C8.031,-0.000 11.000,1.473 11.000,4.000 C11.000,6.133 11.000,8.000 11.000,8.000 L12.000,8.000 L12.000,16.000 L-0.000,16.000 ZM5.000,12.103 L5.000,15.000 L7.000,15.000 L7.000,12.106 C7.599,11.818 8.007,11.284 8.007,10.667 C8.007,9.745 7.110,8.998 6.003,8.998 C4.896,8.998 3.999,9.745 3.999,10.667 C3.999,11.282 4.404,11.814 5.000,12.103 ZM9.000,4.000 C9.000,2.935 7.938,2.000 6.000,2.000 C4.042,2.000 3.000,2.998 3.000,4.000 C3.000,5.271 3.000,8.000 3.000,8.000 L9.000,8.000 C9.000,8.000 9.000,5.002 9.000,4.000 Z"/>
</svg>