<svg 
 xmlns="http://www.w3.org/2000/svg"
 xmlns:xlink="http://www.w3.org/1999/xlink"
 width="30px" height="20px">
<path fill-rule="evenodd"  fill="rgb(25, 25, 25)"
 d="M2.000,-0.000 L28.000,-0.000 C29.104,-0.000 30.000,0.895 30.000,2.000 L30.000,18.000 C30.000,19.104 29.104,20.000 28.000,20.000 L2.000,20.000 C0.895,20.000 -0.000,19.104 -0.000,18.000 L-0.000,2.000 C-0.000,0.895 0.895,-0.000 2.000,-0.000 Z"/>
<path fill-rule="evenodd"  fill="rgb(2, 252, 29)"
 d="M5.000,10.000 L10.009,7.038 L10.009,12.988 L5.000,10.000 Z"/>
<path fill-rule="evenodd"  fill="rgb(255, 255, 255)"
 d="M21.000,16.000 L21.000,4.000 L22.000,4.000 L22.000,16.000 L21.000,16.000 ZM18.000,4.000 L19.000,4.000 L19.000,16.000 L18.000,16.000 L18.000,4.000 ZM15.000,4.000 L16.000,4.000 L16.000,16.000 L15.000,16.000 L15.000,4.000 Z"/>
</svg>