<svg 
 xmlns="http://www.w3.org/2000/svg"
 xmlns:xlink="http://www.w3.org/1999/xlink"
 width="50px" height="26px">
<path fill-rule="evenodd"  fill="rgb(25, 25, 25)"
 d="M2.000,-0.000 L48.000,-0.000 C49.104,-0.000 50.000,0.895 50.000,2.000 L50.000,24.000 C50.000,25.104 49.104,26.000 48.000,26.000 L2.000,26.000 C0.895,26.000 -0.000,25.104 -0.000,24.000 L-0.000,2.000 C-0.000,0.895 0.895,-0.000 2.000,-0.000 Z"/>
<path fill-rule="evenodd"  fill="rgb(255, 255, 255)"
 d="M17.000,19.000 L17.000,7.000 L18.000,7.000 L18.000,19.000 L17.000,19.000 ZM14.000,7.000 L15.000,7.000 L15.000,19.000 L14.000,19.000 L14.000,7.000 ZM11.000,7.000 L12.000,7.000 L12.000,19.000 L11.000,19.000 L11.000,7.000 Z"/>
<path fill-rule="evenodd"  fill="rgb(2, 224, 250)"
 d="M25.000,16.000 L26.000,14.000 L27.000,16.000 L29.000,16.000 L27.000,13.000 L29.000,10.000 L27.000,10.000 L26.000,12.000 L25.000,10.000 L23.000,10.000 L25.000,13.000 L23.000,16.000 L25.000,16.000 Z"/>
<path fill-rule="evenodd"  fill="rgb(2, 224, 250)"
 d="M34.000,22.000 L39.000,22.000 L39.000,21.000 L36.000,21.000 C36.160,20.130 36.226,20.244 37.105,19.715 C37.985,19.155 39.000,18.249 39.000,17.000 C39.000,15.431 37.979,15.000 36.000,15.000 C34.501,15.000 33.920,16.561 34.000,18.000 L35.000,18.000 C34.970,17.150 35.011,16.000 36.000,16.000 C36.750,16.000 38.000,16.230 38.000,17.000 C38.000,17.989 37.315,18.685 36.116,19.435 C35.116,20.035 34.130,20.331 34.000,22.000 Z"/>
<path fill-rule="evenodd"  fill="rgb(2, 224, 250)"
 d="M36.000,10.000 L37.000,10.000 L37.000,3.000 L36.000,3.000 C35.810,4.079 34.969,4.000 34.000,4.000 L34.000,5.000 L36.000,5.000 L36.000,10.000 Z"/>
<path fill-rule="evenodd"  fill="rgb(2, 224, 250)"
 d="M33.000,12.000 L40.000,12.000 L40.000,13.000 L33.000,13.000 L33.000,12.000 Z"/>
</svg>