<svg 
 xmlns="http://www.w3.org/2000/svg"
 xmlns:xlink="http://www.w3.org/1999/xlink"
 width="50px" height="26px">
<path fill-rule="evenodd"  fill="rgb(25, 25, 25)"
 d="M2.000,-0.000 L48.000,-0.000 C49.104,-0.000 50.000,0.895 50.000,2.000 L50.000,24.000 C50.000,25.104 49.104,26.000 48.000,26.000 L2.000,26.000 C0.895,26.000 -0.000,25.104 -0.000,24.000 L-0.000,2.000 C-0.000,0.895 0.895,-0.000 2.000,-0.000 Z"/>
<path fill-rule="evenodd"  fill="rgb(255, 255, 255)"
 d="M18.000,19.000 L18.000,7.000 L19.000,7.000 L19.000,19.000 L18.000,19.000 ZM15.000,7.000 L16.000,7.000 L16.000,19.000 L15.000,19.000 L15.000,7.000 ZM12.000,7.000 L13.000,7.000 L13.000,19.000 L12.000,19.000 L12.000,7.000 Z"/>
<path fill-rule="evenodd"  fill="rgb(2, 224, 250)"
 d="M25.000,16.000 L26.000,14.000 L27.000,16.000 L29.000,16.000 L27.000,13.000 L29.000,10.000 L27.000,10.000 L26.000,12.000 L25.000,10.000 L23.000,10.000 L25.000,13.000 L23.000,16.000 L25.000,16.000 Z"/>
<path fill-rule="evenodd"  fill="rgb(2, 224, 250)"
 d="M33.000,16.000 L38.000,16.000 L38.000,15.000 L35.000,15.000 C35.160,14.130 35.226,14.244 36.105,13.715 C36.985,13.155 38.000,12.249 38.000,11.000 C38.000,9.431 36.979,9.000 35.000,9.000 C33.501,9.000 32.920,10.561 33.000,12.000 L34.000,12.000 C33.970,11.150 34.011,10.000 35.000,10.000 C35.750,10.000 37.000,10.230 37.000,11.000 C37.000,11.989 36.315,12.685 35.116,13.435 C34.116,14.035 33.130,14.331 33.000,16.000 Z"/>
</svg>