<svg 
 xmlns="http://www.w3.org/2000/svg"
 xmlns:xlink="http://www.w3.org/1999/xlink"
 width="30px" height="30px">
<path fill-rule="evenodd"  fill="rgb(25, 25, 25)"
 d="M2.000,-0.000 L28.000,-0.000 C29.104,-0.000 30.000,0.895 30.000,2.000 L30.000,28.000 C30.000,29.104 29.104,30.000 28.000,30.000 L2.000,30.000 C0.895,30.000 -0.000,29.104 -0.000,28.000 L-0.000,2.000 C-0.000,0.895 0.895,-0.000 2.000,-0.000 Z"/>
<path fill-rule="evenodd"  fill="rgb(255, 255, 255)"
 d="M10.000,21.000 L10.000,9.000 L11.000,9.000 L11.000,21.000 L10.000,21.000 ZM7.000,9.000 L8.000,9.000 L8.000,21.000 L7.000,21.000 L7.000,9.000 ZM4.000,9.000 L5.000,9.000 L5.000,21.000 L4.000,21.000 L4.000,9.000 Z"/>
<path fill-rule="evenodd"  fill="rgb(2, 224, 250)"
 d="M15.000,18.000 L16.000,16.000 L17.000,18.000 L19.000,18.000 L17.000,15.000 L19.000,12.000 L17.000,12.000 L16.000,14.000 L15.000,12.000 L13.000,12.000 L15.000,15.000 L13.000,18.000 L15.000,18.000 Z"/>
<path fill-rule="evenodd"  fill="rgb(2, 224, 250)"
 d="M21.218,18.500 L26.951,18.500 L26.951,17.277 L22.861,17.277 C23.317,15.777 26.963,15.202 26.963,12.515 C26.963,11.436 26.315,9.937 24.264,9.937 C22.393,9.937 21.374,11.316 21.374,13.175 L22.741,13.175 C22.777,11.988 23.101,11.076 24.180,11.076 C25.367,11.076 25.595,11.964 25.595,12.563 C25.559,13.871 24.156,14.518 23.065,15.322 C21.925,16.089 21.230,17.109 21.218,18.500 Z"/>
</svg>