<svg 
 xmlns="http://www.w3.org/2000/svg"
 xmlns:xlink="http://www.w3.org/1999/xlink"
 width="30px" height="30px">
<path fill-rule="evenodd"  fill="rgb(25, 25, 25)"
 d="M2.000,-0.000 L28.000,-0.000 C29.104,-0.000 30.000,0.895 30.000,2.000 L30.000,28.000 C30.000,29.104 29.104,30.000 28.000,30.000 L2.000,30.000 C0.895,30.000 -0.000,29.104 -0.000,28.000 L-0.000,2.000 C-0.000,0.895 0.895,-0.000 2.000,-0.000 Z"/>
<path fill-rule="evenodd"  fill="rgb(2, 252, 29)"
 d="M4.000,15.000 L9.009,12.038 L9.009,17.988 L4.000,15.000 Z"/>
<path fill-rule="evenodd"  fill="rgb(2, 252, 29)"
 d="M27.000,15.016 L21.991,17.993 L21.991,12.012 L27.000,15.016 Z"/>
<path fill-rule="evenodd"  fill="rgb(255, 255, 255)"
 d="M18.000,21.000 L18.000,9.000 L19.000,9.000 L19.000,21.000 L18.000,21.000 ZM15.000,9.000 L16.000,9.000 L16.000,21.000 L15.000,21.000 L15.000,9.000 ZM12.000,9.000 L13.000,9.000 L13.000,21.000 L12.000,21.000 L12.000,9.000 Z"/>
</svg>