<svg 
 xmlns="http://www.w3.org/2000/svg"
 xmlns:xlink="http://www.w3.org/1999/xlink"
 width="30px" height="30px">
<path fill-rule="evenodd"  fill="rgb(25, 25, 25)"
 d="M2.000,-0.000 L28.000,-0.000 C29.104,-0.000 30.000,0.895 30.000,2.000 L30.000,28.000 C30.000,29.104 29.104,30.000 28.000,30.000 L2.000,30.000 C0.895,30.000 -0.000,29.104 -0.000,28.000 L-0.000,2.000 C-0.000,0.895 0.895,-0.000 2.000,-0.000 Z"/>
<path fill-rule="evenodd"  fill="rgb(252, 252, 252)"
 d="M9.000,21.000 L9.000,9.000 L10.000,9.000 L10.000,21.000 L9.000,21.000 ZM6.000,9.000 L7.000,9.000 L7.000,21.000 L6.000,21.000 L6.000,9.000 ZM3.000,9.000 L4.000,9.000 L4.000,21.000 L3.000,21.000 L3.000,9.000 Z"/>
<path fill-rule="evenodd"  fill="rgb(2, 224, 250)"
 d="M14.000,18.000 L15.000,16.000 L16.000,18.000 L18.000,18.000 L16.000,15.000 L18.000,12.000 L16.000,12.000 L15.000,14.000 L14.000,12.000 L12.000,12.000 L14.000,15.000 L12.000,18.000 L14.000,18.000 Z"/>
<path fill-rule="evenodd"  fill="rgb(2, 224, 250)"
 d="M20.476,25.116 L25.951,25.116 L25.951,23.948 L22.045,23.948 C22.480,22.516 25.963,21.966 25.963,19.400 C25.963,18.369 25.344,16.937 23.385,16.937 C21.598,16.937 20.624,18.254 20.624,20.030 L21.930,20.030 C21.965,18.896 22.274,18.025 23.305,18.025 C24.439,18.025 24.657,18.873 24.657,19.446 C24.623,20.694 23.282,21.313 22.240,22.080 C21.151,22.814 20.487,23.787 20.476,25.116 Z"/>
<path fill-rule="evenodd"  fill="rgb(2, 224, 250)"
 d="M23.000,12.000 L24.000,12.000 L24.000,5.000 L23.000,5.000 C22.810,6.079 21.969,6.000 21.000,6.000 L21.000,7.000 L23.000,7.000 L23.000,12.000 Z"/>
<path fill-rule="evenodd"  fill="rgb(2, 224, 250)"
 d="M20.000,14.000 L27.000,14.000 L27.000,15.000 L20.000,15.000 L20.000,14.000 Z"/>
</svg>