<svg 
 xmlns="http://www.w3.org/2000/svg"
 xmlns:xlink="http://www.w3.org/1999/xlink"
 width="50px" height="26px">
<path fill-rule="evenodd"  fill="rgb(25, 25, 25)"
 d="M2.000,0.000 L48.000,0.000 C49.105,0.000 50.000,0.895 50.000,2.000 L50.000,24.000 C50.000,25.105 49.105,26.000 48.000,26.000 L2.000,26.000 C0.895,26.000 0.000,25.105 0.000,24.000 L0.000,2.000 C0.000,0.895 0.895,0.000 2.000,0.000 Z"/>
<path fill-rule="evenodd"  fill="rgb(2, 252, 29)"
 d="M28.000,13.000 L22.991,10.038 L22.991,15.988 L28.000,13.000 Z"/>
<path fill-rule="evenodd"  fill="rgb(2, 252, 29)"
 d="M35.000,13.000 L29.991,10.038 L29.991,15.988 L35.000,13.000 Z"/>
<path fill-rule="evenodd"  fill="rgb(2, 252, 29)"
 d="M42.000,13.000 L36.991,10.038 L36.991,15.988 L42.000,13.000 Z"/>
<path fill-rule="evenodd"  fill="rgb(252, 252, 252)"
 d="M17.000,19.000 L17.000,7.000 L18.000,7.000 L18.000,19.000 L17.000,19.000 ZM14.000,7.000 L15.000,7.000 L15.000,19.000 L14.000,19.000 L14.000,7.000 ZM11.000,7.000 L12.000,7.000 L12.000,19.000 L11.000,19.000 L11.000,7.000 Z"/>
</svg>