<svg 
 xmlns="http://www.w3.org/2000/svg"
 xmlns:xlink="http://www.w3.org/1999/xlink"
 width="50px" height="26px">
<path fill-rule="evenodd"  fill="rgb(25, 25, 25)"
 d="M2.000,0.000 L48.000,0.000 C49.105,0.000 50.000,0.895 50.000,2.000 L50.000,24.000 C50.000,25.105 49.105,26.000 48.000,26.000 L2.000,26.000 C0.895,26.000 0.000,25.105 0.000,24.000 L0.000,2.000 C0.000,0.895 0.895,0.000 2.000,0.000 Z"/>
<path fill-rule="evenodd"  fill="rgb(2, 252, 29)"
 d="M44.000,13.016 L38.991,15.993 L38.991,10.012 L44.000,13.016 Z"/>
<path fill-rule="evenodd"  fill="rgb(2, 252, 29)"
 d="M38.000,13.016 L32.991,15.993 L32.991,10.012 L38.000,13.016 Z"/>
<path fill-rule="evenodd"  fill="rgb(2, 252, 29)"
 d="M5.000,13.000 L10.009,10.038 L10.009,15.988 L5.000,13.000 Z"/>
<path fill-rule="evenodd"  fill="rgb(2, 252, 29)"
 d="M11.000,13.000 L16.009,10.038 L16.009,15.988 L11.000,13.000 Z"/>
<path fill-rule="evenodd"  fill="rgb(252, 252, 252)"
 d="M27.000,19.000 L27.000,7.000 L28.000,7.000 L28.000,19.000 L27.000,19.000 ZM24.000,7.000 L25.000,7.000 L25.000,19.000 L24.000,19.000 L24.000,7.000 ZM21.000,7.000 L22.000,7.000 L22.000,19.000 L21.000,19.000 L21.000,7.000 Z"/>
</svg>