<svg 
 xmlns="http://www.w3.org/2000/svg"
 xmlns:xlink="http://www.w3.org/1999/xlink"
 width="50px" height="26px">
<path fill-rule="evenodd"  fill="rgb(25, 25, 25)"
 d="M2.000,0.000 L48.000,0.000 C49.105,0.000 50.000,0.895 50.000,2.000 L50.000,24.000 C50.000,25.105 49.105,26.000 48.000,26.000 L2.000,26.000 C0.895,26.000 0.000,25.105 0.000,24.000 L0.000,2.000 C0.000,0.895 0.895,0.000 2.000,0.000 Z"/>
<path fill-rule="evenodd"  fill="rgb(2, 252, 29)"
 d="M13.000,13.000 L18.009,10.038 L18.009,15.988 L13.000,13.000 Z"/>
<path fill-rule="evenodd"  fill="rgb(252, 252, 252)"
 d="M29.000,19.000 L29.000,7.000 L30.000,7.000 L30.000,19.000 L29.000,19.000 ZM26.000,7.000 L27.000,7.000 L27.000,19.000 L26.000,19.000 L26.000,7.000 ZM23.000,7.000 L24.000,7.000 L24.000,19.000 L23.000,19.000 L23.000,7.000 Z"/>
</svg>