<svg 
 xmlns="http://www.w3.org/2000/svg"
 xmlns:xlink="http://www.w3.org/1999/xlink"
 width="31px" height="31px">
<path fill-rule="evenodd"  stroke-width="1px" stroke="rgb(249, 2, 16)" fill="rgb(50, 50, 50)"
 d="M15.500,2.500 C22.680,2.500 28.500,8.320 28.500,15.500 C28.500,22.680 22.680,28.500 15.500,28.500 C8.320,28.500 2.500,22.680 2.500,15.500 C2.500,8.320 8.320,2.500 15.500,2.500 Z"/>
<path fill-rule="evenodd"  fill="rgb(249, 2, 16)"
 d="M13.495,17.503 L19.502,20.506 L13.495,23.509 L13.495,17.503 Z"/>
<path fill-rule="evenodd"  fill="rgb(250, 250, 250)"
 d="M19.451,10.324 L19.451,15.375 L18.693,15.375 L18.693,10.324 L16.807,10.324 L16.807,9.648 L21.346,9.648 L21.346,10.324 L19.451,10.324 ZM12.178,10.875 L12.178,15.375 L11.451,15.375 L11.451,9.648 L12.229,9.648 L15.236,14.145 L15.236,9.648 L15.963,9.648 L15.963,15.375 L15.186,15.375 L12.178,10.875 ZM9.365,9.648 L10.123,9.648 L10.123,15.375 L9.365,15.375 L9.365,9.648 Z"/>
</svg>