<?xml version="1.0" encoding="utf-8"?>
<!-- Generator: Adobe Illustrator 21.1.0, SVG Export Plug-In . SVG Version: 6.00 Build 0)  -->
<svg version="1.1" id="Layer_1" xmlns="http://www.w3.org/2000/svg" xmlns:xlink="http://www.w3.org/1999/xlink" x="0px" y="0px"
	 viewBox="0 0 8 11" style="enable-background:new 0 0 8 11;" xml:space="preserve">
<style type="text/css">
	.st0{fill:#FF0007;}
</style>
<path class="st0" d="M8,4.6l-0.2,0H7.5V3.7C7.5,1.6,5.9,0,4,0C3.1,0,2.2,0.4,1.5,1.1c-0.7,0.7-1,1.6-1,2.6l0,0.9H0L0,11l8,0L8,4.6z
	 M4.6,8.1v1.8H3.5V8.1c-0.3-0.2-0.6-0.6-0.6-1c0-0.6,0.5-1.2,1.1-1.2s1.1,0.5,1.1,1.2C5.2,7.5,4.9,7.9,4.6,8.1z M1.8,4.6
	c0-1.3,0-0.9,0-0.9c0-0.4,0.1-0.7,0.2-1c0.4-0.8,1.1-1.3,2-1.3c1.2,0,2.2,1,2.2,2.3l0,0.9L1.8,4.6z"/>
</svg>
