<svg
 xmlns="http://www.w3.org/2000/svg"
 xmlns:xlink="http://www.w3.org/1999/xlink"
 width="15px" height="14px">
<path fill-rule="evenodd"  fill="rgb(252, 249, 252)"
 d="M11.537,9.595 C11.207,9.759 10.856,9.888 10.488,9.976 C10.104,10.069 9.703,10.119 9.290,10.119 C9.071,10.119 8.855,10.104 8.643,10.077 C8.314,10.035 7.996,9.962 7.691,9.861 C6.199,9.367 5.025,8.203 4.554,6.739 C4.895,6.549 5.289,6.439 5.710,6.439 C5.903,6.439 6.090,6.463 6.270,6.506 C6.590,7.264 7.205,7.875 7.976,8.205 C8.283,8.337 8.615,8.425 8.963,8.458 C9.071,8.469 9.180,8.474 9.290,8.474 C9.772,8.474 10.230,8.371 10.642,8.189 C10.962,8.047 11.254,7.857 11.508,7.628 C12.151,7.050 12.554,6.225 12.554,5.309 C12.554,3.564 11.090,2.145 9.290,2.145 C8.378,2.145 7.552,2.510 6.959,3.097 C6.556,3.013 6.138,2.967 5.710,2.967 C5.445,2.967 5.185,2.985 4.930,3.018 C5.771,1.519 7.410,0.500 9.290,0.500 C12.025,0.500 14.250,2.657 14.250,5.309 C14.250,7.177 13.146,8.799 11.537,9.595 ZM5.054,3.924 C5.095,3.919 5.136,3.915 5.177,3.910 C5.234,3.904 5.291,3.899 5.348,3.895 C5.382,3.892 5.415,3.890 5.448,3.889 C5.535,3.884 5.622,3.881 5.710,3.881 C5.784,3.881 5.859,3.883 5.934,3.887 C5.958,3.888 5.983,3.889 6.007,3.890 C6.072,3.894 6.137,3.899 6.202,3.906 C6.235,3.909 6.268,3.913 6.301,3.917 C6.339,3.921 6.376,3.926 6.413,3.931 C6.457,3.937 6.500,3.943 6.543,3.951 C6.586,3.958 6.630,3.966 6.673,3.974 C8.462,4.318 9.908,5.595 10.444,7.260 C10.381,7.295 10.317,7.328 10.250,7.358 C9.947,7.492 9.624,7.560 9.290,7.560 C9.213,7.560 9.135,7.557 9.057,7.549 C8.946,7.538 8.837,7.519 8.729,7.493 C8.403,6.721 7.770,6.101 6.979,5.776 C6.823,5.711 6.661,5.659 6.493,5.618 C6.431,5.604 6.369,5.590 6.306,5.579 C6.301,5.578 6.297,5.578 6.292,5.577 C6.238,5.567 6.183,5.559 6.128,5.552 C6.113,5.551 6.099,5.549 6.084,5.547 C6.068,5.545 6.052,5.543 6.036,5.541 C6.007,5.539 5.978,5.537 5.948,5.535 C5.930,5.534 5.912,5.532 5.893,5.531 C5.832,5.528 5.771,5.526 5.710,5.526 C5.642,5.526 5.576,5.528 5.510,5.532 C5.492,5.533 5.474,5.535 5.456,5.536 C5.407,5.540 5.357,5.544 5.309,5.550 C5.289,5.553 5.270,5.555 5.251,5.558 C5.202,5.565 5.154,5.573 5.105,5.581 C5.088,5.585 5.071,5.588 5.054,5.591 C5.000,5.602 4.947,5.614 4.895,5.627 C4.883,5.630 4.871,5.632 4.860,5.635 C4.795,5.652 4.731,5.671 4.668,5.692 C4.660,5.694 4.652,5.697 4.645,5.700 C4.592,5.718 4.540,5.737 4.489,5.757 C4.466,5.766 4.443,5.776 4.420,5.785 C4.399,5.794 4.378,5.802 4.357,5.811 C4.346,5.816 4.336,5.822 4.324,5.827 C4.280,5.847 4.236,5.869 4.193,5.891 C4.171,5.902 4.149,5.913 4.127,5.925 C3.883,6.057 3.659,6.218 3.459,6.403 C2.836,6.980 2.446,7.791 2.446,8.690 C2.446,10.435 3.910,11.855 5.710,11.855 C6.622,11.855 7.448,11.488 8.040,10.900 C8.199,10.934 8.359,10.962 8.520,10.983 C8.782,11.016 9.041,11.033 9.290,11.033 C9.550,11.033 9.809,11.016 10.066,10.982 C9.225,12.480 7.589,13.500 5.710,13.500 C2.975,13.500 0.750,11.342 0.750,8.690 C0.750,6.439 2.354,4.544 4.512,4.023 C4.688,3.981 4.868,3.948 5.051,3.925 L5.054,3.924 Z"/>
</svg>
