<?xml version="1.0" encoding="utf-8"?>
<!-- Generator: Adobe Illustrator 21.1.0, SVG Export Plug-In . SVG Version: 6.00 Build 0)  -->
<svg version="1.1" id="Layer_1" xmlns="http://www.w3.org/2000/svg" xmlns:xlink="http://www.w3.org/1999/xlink" x="0px" y="0px"
	 viewBox="0 0 15 14" style="enable-background:new 0 0 15 14;" xml:space="preserve">
<style type="text/css">
	.st0{fill:#00DD39;}
</style>
<path class="st0" d="M11.5,9.6c-0.3,0.2-0.7,0.3-1,0.4c-0.4,0.1-0.8,0.1-1.2,0.1c-0.2,0-0.4,0-0.6,0C8.3,10,8,10,7.7,9.9
	C6.2,9.4,5,8.2,4.6,6.7c0.3-0.2,0.7-0.3,1.2-0.3c0.2,0,0.4,0,0.6,0.1C6.6,7.3,7.2,7.9,8,8.2c0.3,0.1,0.6,0.2,1,0.3
	c0.1,0,0.2,0,0.3,0c0.5,0,0.9-0.1,1.4-0.3C11,8,11.3,7.9,11.5,7.6c0.6-0.6,1-1.4,1-2.3c0-1.7-1.5-3.2-3.3-3.2c-0.9,0-1.7,0.4-2.3,1
	C6.6,3,6.1,3,5.7,3C5.4,3,5.2,3,4.9,3c0.8-1.5,2.5-2.5,4.4-2.5c2.7,0,5,2.2,5,4.8C14.2,7.2,13.1,8.8,11.5,9.6z M5.1,3.9
	c0,0,0.1,0,0.1,0c0.1,0,0.1,0,0.2,0c0,0,0.1,0,0.1,0c0.1,0,0.2,0,0.3,0c0.1,0,0.1,0,0.2,0c0,0,0,0,0.1,0c0.1,0,0.1,0,0.2,0
	c0,0,0.1,0,0.1,0c0,0,0.1,0,0.1,0c0,0,0.1,0,0.1,0c0,0,0.1,0,0.1,0c1.8,0.3,3.2,1.6,3.8,3.3c-0.1,0-0.1,0.1-0.2,0.1
	c-0.3,0.1-0.6,0.2-1,0.2c-0.1,0-0.2,0-0.2,0c-0.1,0-0.2,0-0.3-0.1C8.4,6.7,7.8,6.1,7,5.8C6.8,5.7,6.7,5.7,6.5,5.6
	c-0.1,0-0.1,0-0.2,0c0,0,0,0,0,0c-0.1,0-0.1,0-0.2,0c0,0,0,0,0,0c0,0,0,0,0,0c0,0-0.1,0-0.1,0c0,0,0,0-0.1,0c-0.1,0-0.1,0-0.2,0
	c-0.1,0-0.1,0-0.2,0c0,0,0,0-0.1,0c0,0-0.1,0-0.1,0c0,0,0,0-0.1,0c0,0-0.1,0-0.1,0c0,0,0,0-0.1,0c-0.1,0-0.1,0-0.2,0c0,0,0,0,0,0
	c-0.1,0-0.1,0-0.2,0.1c0,0,0,0,0,0c-0.1,0-0.1,0-0.2,0.1c0,0,0,0-0.1,0c0,0,0,0-0.1,0c0,0,0,0,0,0c0,0-0.1,0-0.1,0.1c0,0,0,0-0.1,0
	C3.9,6.1,3.7,6.2,3.5,6.4c-0.6,0.6-1,1.4-1,2.3c0,1.7,1.5,3.2,3.3,3.2c0.9,0,1.7-0.4,2.3-1c0.2,0,0.3,0.1,0.5,0.1
	C8.8,11,9,11,9.3,11c0.3,0,0.5,0,0.8-0.1c-0.8,1.5-2.5,2.5-4.4,2.5c-2.7,0-5-2.2-5-4.8c0-2.3,1.6-4.1,3.8-4.7C4.7,4,4.9,3.9,5.1,3.9
	L5.1,3.9z"/>
</svg>
