<svg 
 xmlns="http://www.w3.org/2000/svg"
 xmlns:xlink="http://www.w3.org/1999/xlink"
 width="16px" height="20px">
<path fill-rule="evenodd"  fill="rgb(25, 25, 25)"
 d="M0.000,-0.000 L16.000,-0.000 L16.000,20.000 L0.000,20.000 Z"/>
<path fill-rule="evenodd"  fill="rgb(2, 252, 29)"
 d="M11.333,13.507 C11.333,13.507 11.333,13.415 11.333,10.014 C11.333,4.295 10.710,4.774 10.500,4.774 C10.028,4.774 7.166,4.774 7.166,4.774 L6.333, 3.027 C7.312,3.027 9.645,3.010 10.363,3.010 C11.115,3.010 13.000,3.160 13.000,10.014 C13.000,13.337 13.000,17.000 13.000,17.000 L2.990,17.000 L2.990,7.985 L5.500,11.760 L5.500,13.507 L8.000,13.507 L3.000,3.901 L4.667,3.027 L9.667,13.507 L11.333,13.507 Z"/>
</svg>