<svg 
 xmlns="http://www.w3.org/2000/svg"
 xmlns:xlink="http://www.w3.org/1999/xlink"
 width="18px" height="17px">
<path fill-rule="evenodd"  fill="rgb(252, 252, 252)"
 d="M17.841,12.105 C17.841,14.745 16.590,16.094 15.374,16.094 C15.371,16.094 15.369,16.095 15.366,16.095 L14.260,16.095 C14.169,16.095 14.083,16.073 14.003,16.035 L14.003,8.188 C14.083,8.150 14.169,8.127 14.260,8.127 L14.279,8.127 L14.279,7.852 L13.945,7.852 C13.978,7.620 14.016,7.389 14.016,7.148 C14.016,4.372 11.766,2.122 8.990,2.122 C6.214,2.122 3.964,4.372 3.964,7.148 C3.964,7.389 4.002,7.620 4.035,7.852 L3.686,7.852 L3.686,8.127 L3.739,8.127 C3.832,8.127 3.922,8.150 4.003,8.190 L4.003,16.032 C3.922,16.073 3.832,16.095 3.739,16.095 L2.724,16.095 C2.693,16.097 2.663,16.108 2.631,16.108 C1.370,16.108 0.158,14.762 0.158,12.118 C0.158,9.716 1.091,8.396 2.269,8.175 L2.269,7.219 C2.268,7.197 2.262,7.176 2.262,7.154 C2.262,7.132 2.269,7.111 2.269,7.089 L2.269,6.847 L2.293,6.847 C2.457,3.273 5.383,0.419 8.998,0.419 C12.612,0.419 15.538,3.273 15.702,6.847 L15.715,6.847 L15.715,6.984 C15.717,7.042 15.733,7.096 15.733,7.154 C15.733,7.212 15.720,7.267 15.715,7.324 L15.715,8.161 C16.871,8.382 17.841,9.701 17.841,12.105 Z"/>
</svg>