<svg 
 xmlns="http://www.w3.org/2000/svg"
 xmlns:xlink="http://www.w3.org/1999/xlink"
 width="16px" height="12px">
<path fill-rule="evenodd"  fill="rgb(2, 252, 29)"
 d="M-0.000,-0.000 L16.000,-0.000 L16.000,12.000 L-0.000,12.000 L-0.000,-0.000 ZM1.000,6.000 L4.000,6.000 L4.000,8.000 L1.000,8.000 L1.000,6.000 ZM5.000,6.000 L15.000,6.000 L15.000,8.000 L5.000,8.000 L5.000,6.000 ZM1.000,9.000 L4.000,9.000 L4.000,11.000 L1.000,11.000 L1.000,9.000 ZM5.000,9.000 L15.000,9.000 L15.000,11.000 L5.000,11.000 L5.000,9.000 ZM1.000,3.000 L4.000,3.000 L4.000,5.000 L1.000,5.000 L1.000,3.000 ZM5.000,3.000 L15.000,3.000 L15.000,5.000 L5.000,5.000 L5.000,3.000 Z"/>
</svg>