<svg 
 xmlns="http://www.w3.org/2000/svg"
 xmlns:xlink="http://www.w3.org/1999/xlink"
 width="7px" height="11px">
<path fill-rule="evenodd"  fill="rgb(144, 0, 250)"
 d="M2.374,7.699 L2.374,6.295 C2.374,5.580 2.600,5.044 3.336,4.418 C4.262,3.626 4.737,3.243 4.737,2.694 C4.737,1.941 3.823,1.890 3.538,1.890 C2.327,1.890 2.098,3.130 2.074,3.539 L0.050,3.537 C0.086,3.026 0.095,2.107 0.558,1.430 C1.401,0.179 2.837,-0.013 3.633,-0.013 C5.746,-0.013 6.944,1.251 6.944,2.656 C6.944,3.550 6.541,4.124 5.437,5.031 C4.757,5.587 4.433,5.923 4.333,6.433 C4.309,6.556 4.297,6.689 4.297,6.837 L4.297,7.699 L2.374,7.699 ZM2.339,8.594 L4.345,8.594 L4.345,10.531 L2.339,10.531 L2.339,8.594 Z"/>
</svg>