<svg 
 xmlns="http://www.w3.org/2000/svg"
 xmlns:xlink="http://www.w3.org/1999/xlink"
 width="12px" height="11px">
<path fill-rule="evenodd"  fill="rgb(255, 130, 5)"
 d="M0.143,4.371 L0.131,4.479 L3.537,6.877 L2.182,10.895 L2.266,10.967 L5.684,8.448 L9.102,10.967 L9.186,10.895 L7.831,6.877 L11.237,4.479 L11.225,4.371 L7.027,4.371 L5.732,0.341 L5.636,0.341 L4.341,4.371 L0.143,4.371 ZM5.360,2.596 L5.672,1.468 L5.696,1.468 L6.008,2.596 L6.716,4.802 L9.018,4.802 L10.182,4.742 L10.182,4.766 L9.162,5.414 L7.315,6.709 L8.011,8.748 L8.479,9.996 L8.455,10.008 L7.399,9.168 L5.684,7.921 L3.969,9.168 L2.914,10.008 L2.890,9.996 L3.357,8.748 L4.053,6.709 L2.206,5.414 L1.187,4.766 L1.187,4.742 L2.338,4.802 L4.653,4.802 L5.360,2.596 Z"/>
</svg>