<svg 
 xmlns="http://www.w3.org/2000/svg"
 xmlns:xlink="http://www.w3.org/1999/xlink"
 width="21px" height="14px">
<path fill-rule="evenodd"  fill="rgb(255, 130, 5)"
 d="M19.000,14.000 L0.000,14.000 L0.000,0.000 L19.000,0.000 C20.105,0.000 21.000,0.896 21.000,2.000 L21.000,12.000 C21.000,13.105 20.105,14.000 19.000,14.000 Z"/>
<path fill-rule="evenodd"  fill="rgb(0, 0, 0)"
 d="M13.000,11.000 L9.000,11.000 C6.790,11.000 5.000,9.209 5.000,7.000 C5.000,6.970 5.011,6.944 5.012,6.914 L2.496,6.914 L5.993,2.296 L9.529,6.914 L6.997,6.914 C6.997,6.915 6.996,6.916 6.996,6.918 L6.996,7.019 C6.996,8.101 7.766,8.978 8.716,8.978 L13.313,8.978 C14.263,8.978 15.033,8.101 15.033,7.019 L15.033,6.918 C15.033,5.836 14.263,4.960 13.313,4.960 L10.456,4.960 L8.729,3.027 C8.820,3.021 8.907,3.000 9.000,3.000 L13.000,3.000 C15.209,3.000 17.000,4.791 17.000,7.000 C17.000,9.209 15.209,11.000 13.000,11.000 Z"/>
</svg>