<svg 
 xmlns="http://www.w3.org/2000/svg"
 xmlns:xlink="http://www.w3.org/1999/xlink"
 width="18px" height="14px">
<path fill-rule="evenodd"  fill="rgb(2, 224, 250)"
 d="M2.000,-0.000 L16.000,-0.000 C17.104,-0.000 18.000,0.895 18.000,2.000 L18.000,12.000 C18.000,13.104 17.104,14.000 16.000,14.000 L2.000,14.000 C0.895,14.000 -0.000,13.104 -0.000,12.000 L-0.000,2.000 C-0.000,0.895 0.895,-0.000 2.000,-0.000 Z"/>
<path fill-rule="evenodd"  fill="rgb(0, 0, 0)"
 d="M16.000,7.000 L9.991,11.000 L9.991,8.000 L8.000,8.000 L8.000,6.000 L9.991,6.000 L9.991,3.000 L16.000,7.000 ZM5.000,6.000 L7.000,6.000 L7.000,8.000 L5.000,8.000 L5.000,6.000 ZM3.000,11.000 L2.000,11.000 L2.000,3.000 L3.000,3.000 L3.000,6.000 L4.000,6.000 L4.000,8.000 L3.000,8.000 L3.000,11.000 Z"/>
</svg>