<svg
 xmlns="http://www.w3.org/2000/svg"
 xmlns:xlink="http://www.w3.org/1999/xlink"
 width="14px" height="13px">
<path fill-rule="evenodd"  fill="rgb(255, 130, 5)"
 d="M-0.000,-0.000 L14.000,-0.000 L14.000,13.000 L-0.000,13.000 L-0.000,-0.000 Z"/>
<path fill-rule="evenodd"  fill="rgb(0, 0, 0)"
 d="M5.000,1.000 L13.000,1.000 L13.000,12.000 L5.000,12.000 L5.000,1.000 Z"/>
<path fill-rule="evenodd"  fill="rgb(255, 130, 5)"
 d="M6.000,11.000 L6.000,10.000 L12.000,10.000 L12.000,11.000 L6.000,11.000 ZM6.000,8.000 L12.000,8.000 L12.000,9.000 L6.000,9.000 L6.000,8.000 ZM6.000,6.000 L12.000,6.000 L12.000,7.000 L6.000,7.000 L6.000,6.000 ZM6.000,4.000 L12.000,4.000 L12.000,5.000 L6.000,5.000 L6.000,4.000 ZM6.000,2.000 L12.000,2.000 L12.000,3.000 L6.000,3.000 L6.000,2.000 Z"/>
</svg>
