<svg
 xmlns="http://www.w3.org/2000/svg"
 xmlns:xlink="http://www.w3.org/1999/xlink"
 width="14px" height="14px">
<path fill-rule="evenodd"  fill="rgb(244, 2, 250)"
 d="M7.575,1.289 C8.294,1.289 8.876,1.872 8.876,2.590 C8.876,3.309 8.294,3.891 7.575,3.891 C6.856,3.891 6.274,3.309 6.274,2.590 C6.274,1.872 6.856,1.289 7.575,1.289 ZM5.445,5.795 C5.445,5.795 6.549,4.451 7.809,5.292 C8.311,5.627 8.232,5.931 7.611,8.236 C6.549,12.178 7.194,9.891 6.975,10.766 C6.757,11.640 7.484,11.832 7.841,11.474 C8.342,10.972 7.927,11.587 7.927,11.587 C7.927,11.587 6.946,12.726 6.201,12.726 C5.655,12.726 4.901,12.212 5.447,10.464 C5.993,8.716 6.094,7.586 6.313,6.822 C6.531,6.057 6.201,5.972 5.477,6.389 C5.355,6.459 5.445,5.795 5.445,5.795 ZM7.004,0.022 C10.851,0.022 13.970,3.141 13.970,6.988 C13.970,10.835 10.851,13.954 7.004,13.954 C3.156,13.954 0.038,10.835 0.038,6.988 C0.038,3.141 3.156,0.022 7.004,0.022 Z"/>
</svg>
