<svg 
 xmlns="http://www.w3.org/2000/svg"
 xmlns:xlink="http://www.w3.org/1999/xlink"
 width="15px" height="12px">
<path fill-rule="evenodd"  fill="rgb(15, 250, 0)"
 d="M7.921,10.045 C5.221,10.045 2.686,10.045 2.686,10.045 C1.658,9.963 0.514,9.269 0.176,8.171 C-0.277,6.703 0.217,5.052 1.658,4.516 C1.687,3.931 2.089,3.296 2.469,2.932 C2.739,3.263 3.245,3.822 3.245,3.822 C2.997,3.987 2.860,4.240 2.843,4.575 C2.819,5.050 2.515,5.466 2.071,5.631 C1.234,5.943 1.054,6.991 1.310,7.820 C1.488,8.398 2.169,8.794 2.741,8.856 C2.741,8.856 5.116,8.856 6.863,8.856 C7.024,9.078 7.680,9.768 7.921,10.045 ZM11.158,12.001 L12.089,11.264 L3.225,-0.009 L2.293,0.728 L11.158,12.001 ZM12.536,10.032 C16.145,9.739 15.438,4.796 12.523,4.516 C12.278,2.110 10.429,0.697 8.514,0.695 L8.514,0.695 C8.514,0.695 8.514,0.695 8.514,0.695 C8.513,0.695 8.513,0.695 8.512,0.695 C8.511,0.695 8.511,0.695 8.510,0.695 L8.510,0.695 C7.666,0.696 6.809,0.971 6.069,1.556 C6.233,1.773 6.608,2.224 6.775,2.510 C7.278,2.102 7.870,1.885 8.511,1.885 C8.513,1.885 8.515,1.885 8.517,1.885 C9.194,1.886 9.847,2.138 10.355,2.592 C10.916,3.093 11.257,3.800 11.342,4.637 C11.400,5.201 11.847,5.646 12.410,5.700 C12.915,5.749 13.236,6.053 13.415,6.300 C13.674,6.655 13.816,7.130 13.795,7.571 C13.744,8.633 12.896,8.856 12.194,8.856 C12.194,8.856 11.949,8.856 11.632,8.856 C11.871,9.129 12.433,9.839 12.536,10.032 Z"/>
</svg>