<svg 
 xmlns="http://www.w3.org/2000/svg"
 xmlns:xlink="http://www.w3.org/1999/xlink"
 width="11px" height="10px">
<path fill-rule="evenodd"  fill="rgb(151, 94, 4)"
 d="M-0.000,-0.000 L-0.000,10.000 L11.000,10.000 L11.000,-0.000 L-0.000,-0.000 ZM8.000,1.000 L8.000,4.000 L3.000,4.000 L3.000,1.000 L8.000,1.000 ZM1.000,1.000 L2.000,1.000 L2.000,2.000 L1.000,2.000 L1.000,1.000 ZM1.000,3.000 L2.000,3.000 L2.000,4.000 L1.000,4.000 L1.000,3.000 ZM2.000,9.000 L1.000,9.000 L1.000,8.000 L2.000,8.000 L2.000,9.000 ZM1.000,7.000 L1.000,6.000 L2.000,6.000 L2.000,7.000 L1.000,7.000 ZM3.000,9.000 L3.000,6.000 L8.000,6.000 L8.000,9.000 L3.000,9.000 ZM10.000,9.000 L9.000,9.000 L9.000,8.000 L10.000,8.000 L10.000,9.000 ZM10.000,7.000 L9.000,7.000 L9.000,6.000 L10.000,6.000 L10.000,7.000 ZM10.000,4.000 L9.000,4.000 L9.000,3.000 L10.000,3.000 L10.000,4.000 ZM10.000,2.000 L9.000,2.000 L9.000,1.000 L10.000,1.000 L10.000,2.000 Z"/>
</svg>