<svg 
 xmlns="http://www.w3.org/2000/svg"
 xmlns:xlink="http://www.w3.org/1999/xlink"
 width="31px" height="16px">
<path fill-rule="evenodd"  fill="rgb(23, 250, 0)"
 d="M22.000,13.000 L22.000,12.000 L24.319,12.000 L21.664,9.345 L22.371,8.638 L25.000,11.267 L25.000,9.000 L26.000,9.000 L26.000,13.000 L22.000,13.000 ZM25.000,4.702 L22.371,7.330 L21.664,6.623 L24.287,4.000 L22.000,4.000 L22.000,3.000 L26.000,3.000 L26.000,7.000 L25.000,7.000 L25.000,4.702 ZM16.000,12.000 L16.000,13.000 L12.000,13.000 L12.000,9.000 L13.000,9.000 L13.000,11.225 L15.618,8.607 L16.325,9.315 L13.639,12.000 L16.000,12.000 ZM15.618,7.361 L13.000,4.744 L13.000,7.000 L12.000,7.000 L12.000,3.000 L16.000,3.000 L16.000,4.000 L13.670,4.000 L16.325,6.654 L15.618,7.361 Z"/>
</svg>