<svg 
 xmlns="http://www.w3.org/2000/svg"
 xmlns:xlink="http://www.w3.org/1999/xlink"
 width="15px" height="14px">
<path fill-rule="evenodd"  fill="rgb(252, 249, 252)"
 d="M13.996,9.244 C12.850,8.122 11.146,7.948 10.066,8.799 L8.671,6.911 L11.581,2.290 L11.434,-0.000 L7.498,5.325 L3.563,-0.000 L3.416,2.290 L6.326,6.911 L4.923,8.810 C3.842,7.966 2.144,8.143 1.001,9.262 C-0.215,10.452 -0.342,12.258 0.718,13.295 C1.778,14.332 3.623,14.208 4.840,13.018 C5.260,12.607 5.550,12.123 5.706,11.622 L7.498,8.774 L9.304,11.642 C9.462,12.129 9.748,12.599 10.157,13.000 C10.158,13.001 10.160,13.002 10.161,13.003 L10.173,13.022 L10.173,13.015 C11.389,14.191 13.224,14.310 14.279,13.277 C15.339,12.240 15.212,10.434 13.996,9.244 ZM3.929,12.127 C3.290,12.753 2.320,12.818 1.762,12.273 C1.205,11.728 1.272,10.778 1.911,10.153 C2.551,9.527 3.521,9.462 4.078,10.007 C4.635,10.552 4.569,11.502 3.929,12.127 ZM13.235,12.255 C12.677,12.800 11.707,12.735 11.068,12.109 C10.428,11.484 10.361,10.534 10.919,9.989 C11.476,9.444 12.446,9.509 13.086,10.135 C13.725,10.760 13.792,11.710 13.235,12.255 Z"/>
</svg>