<svg 
 xmlns="http://www.w3.org/2000/svg"
 xmlns:xlink="http://www.w3.org/1999/xlink"
 width="16px" height="16px">
<path fill-rule="evenodd"  fill="rgb(249, 2, 222)"
 d="M9.500,13.000 C7.886,13.000 6.428,12.390 5.291,11.416 L1.672,15.035 L0.964,14.328 L4.584,10.709 C3.610,9.572 3.000,8.114 3.000,6.500 C3.000,2.910 5.910,0.000 9.500,0.000 C13.090,0.000 16.000,2.910 16.000,6.500 C16.000,10.090 13.090,13.000 9.500,13.000 ZM9.500,1.000 C6.467,1.000 4.000,3.467 4.000,6.500 C4.000,7.836 4.498,9.046 5.293,10.000 L5.328,9.964 L6.035,10.672 L6.000,10.707 C6.954,11.502 8.164,12.000 9.500,12.000 C12.533,12.000 15.000,9.533 15.000,6.500 C15.000,3.467 12.533,1.000 9.500,1.000 ZM7.000,6.000 L12.000,6.000 L12.000,7.000 L7.000,7.000 L7.000,6.000 Z"/>
</svg>