<?xml version="1.0" encoding="utf-8"?>
<!-- Generator: Adobe Illustrator 21.1.0, SVG Export Plug-In . SVG Version: 6.00 Build 0)  -->
<svg version="1.1" id="Layer_1" xmlns="http://www.w3.org/2000/svg" xmlns:xlink="http://www.w3.org/1999/xlink" x="0px" y="0px"
	 viewBox="0 0 21 21" style="enable-background:new 0 0 21 21;" xml:space="preserve">
<style type="text/css">
	.st0{stroke:#969696;}
	.st1{fill:#F80030;}
	.st2{fill:#4B4B4B;}
</style>
<path class="st0" d="M2.5,2.5h16v16h-16V2.5z"/>
<path class="st1" d="M17.5,12.5v1h-4v4h-1v-4h-4v4h-1v-4h-4v-1h4v-4h-4v-1h4v-4h1v4h4v-4h1v4h4v1h-4v4H17.5z M12.5,8.5h-4v4h4V8.5z"
	/>
<path class="st2" d="M13.5,12.5v-4h4v4H13.5z M8.5,8.5h4v4h-4V8.5z M3.5,8.5h4v4h-4V8.5z"/>
</svg>
