<svg 
 xmlns="http://www.w3.org/2000/svg"
 xmlns:xlink="http://www.w3.org/1999/xlink"
 width="19px" height="16px">
<path fill-rule="evenodd"  fill="rgb(0, 125, 225)"
 d="M16.000,13.150 L16.000,16.000 L15.000,16.000 L15.000,13.150 C13.748,12.915 12.800,11.820 12.800,10.500 C12.800,9.933 12.983,9.413 13.282,8.979 L11.020,6.717 C10.717,6.924 10.375,7.079 10.000,7.150 L10.000,16.000 L9.000,16.000 L9.000,7.150 C8.705,7.094 8.428,6.987 8.175,6.845 L5.591,9.799 C5.970,10.262 6.200,10.853 6.200,11.500 C6.200,12.820 5.252,13.914 4.000,14.149 L4.000,16.000 L3.000,16.000 L3.000,14.150 C1.748,13.915 0.800,12.820 0.800,11.500 C0.800,10.180 1.748,9.085 3.000,8.850 L3.000,-0.000 L4.000,-0.000 L4.000,8.850 C4.295,8.906 4.572,9.012 4.825,9.155 L7.409,6.201 C7.030,5.737 6.800,5.147 6.800,4.500 C6.800,3.180 7.748,2.085 9.000,1.850 L9.000,-0.000 L10.000,-0.000 L10.000,1.850 C11.252,2.085 12.200,3.180 12.200,4.500 C12.200,5.067 12.017,5.587 11.718,6.021 L13.980,8.283 C14.283,8.076 14.625,7.921 15.000,7.850 L15.000,-0.000 L16.000,-0.000 L16.000,7.850 C17.252,8.085 18.200,9.180 18.200,10.500 C18.200,11.820 17.252,12.915 16.000,13.150 Z"/>
</svg>