<svg 
 xmlns="http://www.w3.org/2000/svg"
 xmlns:xlink="http://www.w3.org/1999/xlink"
 width="10px" height="13px">
<path fill-rule="evenodd"  fill="rgb(150, 150, 150)"
 d="M9.587,3.044 L6.471,1.156 C5.915,0.819 5.453,1.047 5.445,1.662 L5.429,2.879 C2.432,2.896 -0.000,5.159 -0.000,7.939 C-0.000,10.730 2.450,13.000 5.462,13.000 C5.973,13.000 6.387,12.617 6.387,12.144 C6.387,11.670 5.973,11.287 5.462,11.287 C3.470,11.287 1.849,9.785 1.849,7.939 C1.849,6.110 3.439,4.620 5.406,4.592 L5.394,5.532 C5.385,6.147 5.841,6.385 6.406,6.061 L9.571,4.245 C10.136,3.921 10.143,3.381 9.587,3.044 Z"/>
</svg>