<svg 
 xmlns="http://www.w3.org/2000/svg"
 xmlns:xlink="http://www.w3.org/1999/xlink"
 width="13px" height="14px">
<path fill-rule="evenodd"  fill="rgb(255, 255, 255)"
 d="M8.748,3.122 L8.785,2.369 L7.000,0.000 L2.000,1.000 L1.000,2.000 C1.000,2.000 2.208,3.575 2.208,3.834 C2.208,4.009 2.208,4.502 2.208,4.800 L-0.010,5.384 L0.257,10.554 L3.983,14.000 L12.734,10.599 L13.000,3.965 L8.748,3.122 ZM3.586,4.438 L3.628,3.661 L3.093,2.541 L7.097,1.593 L7.475,2.378 L7.528,3.399 L3.586,4.438 ZM11.639,9.728 L4.515,12.363 L4.446,7.210 L11.701,4.981 L11.639,9.728 Z"/>
</svg>