<svg 
 xmlns="http://www.w3.org/2000/svg"
 xmlns:xlink="http://www.w3.org/1999/xlink"
 width="14px" height="15px">
<path fill-rule="evenodd"  fill="rgb(255, 255, 255)"
 d="M11.634,5.774 L8.962,5.470 L7.887,4.408 L6.995,1.731 L1.610,0.864 L2.670,5.495 C1.821,5.856 1.116,6.550 0.823,7.709 C0.298,9.785 0.466,11.965 3.419,12.720 C4.618,13.026 5.397,13.233 5.945,13.379 L6.384,14.207 L10.729,14.696 L12.658,13.034 L13.299,7.854 L11.634,5.774 ZM5.151,5.288 C5.008,4.788 4.193,3.219 4.193,3.219 L5.658,3.600 L6.365,5.479 C5.571,5.398 5.151,5.288 5.151,5.288 ZM11.219,10.379 C10.969,12.375 9.649,13.586 8.645,13.355 C7.642,13.124 7.132,11.618 7.508,9.992 C7.883,8.365 9.002,7.234 10.006,7.466 C11.010,7.697 11.447,8.555 11.219,10.379 Z"/>
</svg>