<svg 
 xmlns="http://www.w3.org/2000/svg"
 xmlns:xlink="http://www.w3.org/1999/xlink"
 width="16px" height="14px">
<path fill-rule="evenodd"  fill="rgb(255, 255, 255)"
 d="M14.560,6.416 C13.939,6.235 13.866,6.240 11.953,5.851 L10.978,2.544 L3.982,0.566 L4.000,4.000 C2.547,3.749 2.199,3.981 1.815,5.913 C1.618,6.899 1.173,8.473 1.015,9.518 C0.840,10.678 1.307,11.187 1.939,11.336 C5.932,12.273 12.251,13.660 13.434,13.939 C14.065,14.089 14.474,13.923 14.747,12.827 C15.005,11.792 15.667,8.978 15.796,8.385 C16.035,7.295 16.359,6.838 14.560,6.416 ZM7.010,4.756 L6.904,2.973 L8.881,3.682 L8.936,5.246 C7.948,5.049 7.678,4.903 7.010,4.756 ZM14.669,10.567 C14.269,12.128 13.285,13.214 12.471,12.993 C11.658,12.772 11.322,11.328 11.721,9.767 C12.121,8.206 13.104,7.120 13.918,7.341 C14.732,7.562 15.068,9.006 14.669,10.567 Z"/>
</svg>