<svg 
 xmlns="http://www.w3.org/2000/svg"
 xmlns:xlink="http://www.w3.org/1999/xlink"
 width="13px" height="14px">
<path fill-rule="evenodd"  fill="rgb(100, 100, 100)"
 d="M8.751,2.619 L7.027,3.085 L7.027,0.706 C7.027,0.706 6.841,-0.001 5.751,-0.001 C4.662,-0.001 4.523,0.706 4.523,0.706 L4.523,3.763 L-0.000,4.986 L0.266,10.394 L3.989,14.000 L12.734,10.441 L13.000,3.501 L8.751,2.619 ZM5.190,11.295 C4.468,11.295 3.882,10.479 3.882,9.472 C3.882,8.464 4.468,7.648 5.190,7.648 C5.913,7.648 6.499,8.464 6.499,9.472 C6.499,10.479 5.913,11.295 5.190,11.295 ZM8.158,10.352 C7.436,10.352 6.850,9.536 6.850,8.529 C6.850,7.521 7.436,6.705 8.158,6.705 C8.881,6.705 9.467,7.521 9.467,8.529 C9.467,9.536 8.881,10.352 8.158,10.352 ZM11.064,9.409 C10.342,9.409 9.756,8.593 9.756,7.585 C9.756,6.578 10.342,5.762 11.064,5.762 C11.787,5.762 12.373,6.578 12.373,7.585 C12.373,8.593 11.787,9.409 11.064,9.409 Z"/>
</svg>