<svg 
 xmlns="http://www.w3.org/2000/svg"
 xmlns:xlink="http://www.w3.org/1999/xlink"
 width="13px" height="15px">
<path fill-rule="evenodd"  fill="rgb(255, 255, 255)"
 d="M12.600,1.954 C11.410,-0.782 9.034,0.150 9.034,0.150 C9.034,0.150 6.755,0.771 4.727,1.641 C4.316,1.817 3.921,2.025 3.559,2.237 C3.317,2.136 3.037,2.076 2.713,2.076 C1.056,2.076 0.085,3.295 0.085,5.512 L0.003,13.634 L3.392,15.000 L11.179,13.571 L11.355,6.765 C11.485,6.682 11.580,6.617 11.623,6.577 C12.036,6.194 13.771,4.647 12.600,1.954 ZM7.354,10.775 L5.091,11.171 L5.084,9.911 L6.292,9.532 C6.292,9.532 6.744,9.296 7.384,8.956 L7.354,10.775 ZM11.872,4.805 C11.732,4.905 11.571,4.958 11.401,4.972 L11.402,4.913 L11.194,4.972 C10.640,4.916 10.016,4.477 9.579,3.771 C8.948,2.749 8.950,1.555 9.584,1.104 C10.219,0.653 11.245,1.116 11.877,2.138 C12.509,3.160 12.507,4.354 11.872,4.805 Z"/>
</svg>