<svg 
 xmlns="http://www.w3.org/2000/svg"
 xmlns:xlink="http://www.w3.org/1999/xlink"
 width="13px" height="13px">
<path fill-rule="evenodd"  fill="rgb(255, 255, 255)"
 d="M12.861,7.830 C12.015,8.092 10.927,8.318 9.636,8.462 C9.669,7.868 9.686,7.267 9.686,6.666 C9.686,5.971 9.663,5.276 9.619,4.592 C10.923,4.736 12.021,4.965 12.872,5.229 C12.954,5.640 12.997,6.065 12.997,6.500 C12.997,6.956 12.950,7.401 12.861,7.830 ZM9.046,0.518 C10.637,1.197 11.901,2.493 12.540,4.105 C11.643,3.871 10.620,3.698 9.539,3.586 C9.432,2.492 9.268,1.449 9.046,0.518 ZM6.540,8.626 C5.653,8.626 4.823,8.588 4.055,8.521 C4.021,7.931 4.001,7.313 4.001,6.666 C4.001,5.917 4.027,5.205 4.073,4.533 C4.836,4.467 5.660,4.430 6.540,4.430 C7.273,4.430 7.966,4.456 8.618,4.502 C8.666,5.184 8.692,5.905 8.692,6.666 C8.692,7.324 8.672,7.953 8.636,8.552 C7.979,8.599 7.279,8.626 6.540,8.626 ZM4.159,3.530 C4.294,2.247 4.505,1.139 4.755,0.237 C5.310,0.083 5.894,-0.001 6.498,-0.001 C6.985,-0.001 7.459,0.054 7.915,0.155 C8.173,1.065 8.392,2.191 8.531,3.502 C7.875,3.458 7.207,3.436 6.540,3.436 C5.740,3.436 4.939,3.468 4.159,3.530 ZM0.448,4.128 C1.038,2.622 2.173,1.391 3.611,0.676 C3.405,1.579 3.251,2.581 3.151,3.630 C2.177,3.745 1.259,3.912 0.448,4.128 ZM3.008,6.666 C3.008,7.251 3.024,7.837 3.055,8.415 C1.889,8.266 0.904,8.049 0.130,7.802 C0.045,7.381 -0.001,6.946 -0.001,6.500 C-0.001,6.075 0.042,5.660 0.119,5.257 C0.899,5.008 1.893,4.788 3.071,4.638 C3.029,5.307 3.008,5.987 3.008,6.666 ZM3.530,12.283 C2.150,11.573 1.057,10.384 0.472,8.934 C1.270,9.145 2.170,9.309 3.125,9.423 C3.212,10.430 3.347,11.398 3.530,12.283 ZM8.560,9.552 C8.439,10.814 8.245,11.913 8.010,12.823 C7.525,12.939 7.019,13.002 6.498,13.002 C5.860,13.002 5.243,12.908 4.660,12.736 C4.435,11.837 4.248,10.757 4.131,9.523 C4.919,9.587 5.730,9.620 6.540,9.620 C7.217,9.620 7.895,9.597 8.560,9.552 ZM12.516,8.957 C11.881,10.512 10.661,11.765 9.130,12.445 C9.327,11.529 9.473,10.519 9.565,9.467 C10.627,9.356 11.632,9.185 12.516,8.957 Z"/>
</svg>