<svg 
 xmlns="http://www.w3.org/2000/svg"
 xmlns:xlink="http://www.w3.org/1999/xlink"
 width="19px" height="10px">
<path fill-rule="evenodd"  fill="rgb(255, 255, 255)"
 d="M18.998,4.171 L16.106,-0.002 L1.031,4.677 L0.000,7.105 L1.826,10.001 L3.576,9.526 L18.998,4.171 ZM5.836,7.472 C5.309,7.656 4.761,7.588 4.338,7.335 C4.041,7.157 3.805,6.888 3.685,6.548 C3.394,5.724 3.885,4.802 4.782,4.488 C5.679,4.174 6.642,4.588 6.933,5.412 C7.156,6.042 6.920,6.729 6.395,7.158 C6.234,7.290 6.047,7.398 5.836,7.472 ZM14.346,1.505 C15.243,1.191 16.207,1.605 16.498,2.428 C16.789,3.252 16.298,4.175 15.401,4.489 C14.504,4.803 13.541,4.389 13.249,3.565 C12.958,2.741 13.449,1.819 14.346,1.505 ZM10.597,5.958 C9.700,6.272 8.737,5.858 8.445,5.034 C8.154,4.210 8.646,3.288 9.543,2.974 C10.440,2.660 11.403,3.074 11.694,3.898 C11.985,4.721 11.494,5.644 10.597,5.958 Z"/>
</svg>